<svg xmlns="http://www.w3.org/2000/svg" version="1.1" id="layer" x="0px" y="0px"
     style="enable-background:new 0 0 652 652;" xml:space="preserve" viewBox="25.8 282.8 600 86.6">
    <path fill="white"
          d="M25.8,286.3h36.7c9.3,0,16.7,2.6,21.4,7.2c3.6,3.6,5.5,8.1,5.5,13.5v0.2c0,9.8-5.6,15.1-11.7,18.2  c9.6,3.3,16.2,8.8,16.2,19.8v0.2c0,14.6-12,22.4-30.2,22.4H25.8V286.3z M75,309.4c0-6.4-5.1-10.4-14.4-10.4H40v21.7h19.6  c9.2,0,15.4-3.6,15.4-11.1V309.4z M62.7,332.9H40v22.4h23.8c9.8,0,15.8-3.9,15.8-11.2v-0.2C79.5,336.9,74,332.9,62.7,332.9"></path>
    <rect x="103.2" y="282.8" class="st0" width="14.1" height="85.2" fill="white"></rect>
    <path fill="white"
          d="M126,350.3V350c0-13.3,10.4-19.8,25.4-19.8c6.9,0,11.8,1,16.6,2.6v-1.5c0-8.8-5.4-13.4-15.3-13.4  c-6.9,0-12,1.5-17.6,3.9l-3.7-11.1c6.8-3,13.4-5,23.2-5c9.2,0,16.1,2.5,20.4,6.9c4.6,4.4,6.7,11,6.7,19V368h-13.8v-7.7  c-4.2,5-10.6,9-20.1,9C136.2,369.3,126,362.6,126,350.3 M168.2,345.8v-4.2c-3.6-1.4-8.4-2.5-14-2.5c-9.1,0-14.5,3.9-14.5,10.3v0.2  c0,6,5.2,9.3,12,9.3C161.1,359,168.2,353.6,168.2,345.8"></path>
    <path fill="white"
          d="M189,337.5v-0.2c0-17.5,13.5-32.2,32.1-32.2c11.6,0,18.8,4.3,24.6,10.6l-8.9,9.5c-4.3-4.6-8.9-7.7-15.9-7.7  c-10.3,0-17.9,8.9-17.9,19.6v0.2c0,11,7.6,19.7,18.4,19.7c6.7,0,11.6-3,16-7.6l8.5,8.4c-6.1,6.8-13.2,11.6-25.2,11.6  C202.5,369.4,189,355,189,337.5"></path>
    <polygon fill="white"
             points="253.5,282.8 267.7,282.8 267.7,333.7 293.2,306.4 310.4,306.4 285.9,331.5 311.2,368 294.6,368   276.4,341.3 267.7,350.4 267.7,368 253.5,368 "></polygon>
    <path fill="white"
          d="M332.9,358.4v9.6h-14.1v-85.2h14.1v33.8c4.6-6.4,11-11.6,21-11.6c14.5,0,28.6,11.4,28.6,32v0.2  c0,20.4-14,32-28.6,32C343.6,369.3,337.2,364.1,332.9,358.4 M368.1,337.3v-0.2c0-11.9-8.1-19.7-17.6-19.7s-18,7.9-18,19.7v0.2  c0,11.8,8.4,19.7,18,19.7C360.2,357,368.1,349.4,368.1,337.3"></path>
    <path fill="white"
          d="M387.6,337.5v-0.2c0-17.6,14-32.2,32.9-32.2c18.9,0,32.8,14.4,32.8,32v0.2c0,17.5-14,32.1-33,32.1  C401.5,369.4,387.6,355,387.6,337.5 M439.2,337.5v-0.2c0-10.9-7.8-19.8-18.9-19.8c-11.3,0-18.6,8.9-18.6,19.6v0.2  c0,10.7,7.8,19.7,18.8,19.7C432,357,439.2,348.2,439.2,337.5"></path>
    <path fill="white"
          d="M457.9,350.3V350c0-13.3,10.4-19.8,25.4-19.8c6.9,0,11.8,1,16.6,2.6v-1.5c0-8.8-5.4-13.4-15.3-13.4  c-6.9,0-12,1.5-17.6,3.9l-3.7-11.1c6.8-3,13.4-5,23.2-5c9.2,0,16.1,2.5,20.4,6.9c4.6,4.4,6.7,11,6.7,19V368h-13.8v-7.7  c-4.2,5-10.6,9-20.1,9C468.2,369.3,457.9,362.6,457.9,350.3 M500.1,345.8v-4.2c-3.6-1.4-8.4-2.5-14-2.5c-9.1,0-14.5,3.9-14.5,10.3  v0.2c0,6,5.2,9.3,12,9.3C493,359,500.1,353.6,500.1,345.8"></path>
    <path fill="white"
          d="M524.5,306.4h14.1v13.9c3.9-9.2,11-15.5,21.8-15.1v14.9h-0.8c-12.4,0-21,8.1-21,24.4V368h-14.1V306.4z"></path>
    <path fill="white"
          d="M562.1,337.3v-0.2c0-20.4,13.9-32,28.6-32c10.2,0,16.6,5,21,10.9v-33.1h14.1V368h-14.1v-10.3  c-4.6,6.4-11,11.6-21,11.6C576.2,369.3,562.1,357.7,562.1,337.3 M611.9,337.3v-0.2c0-11.9-8.4-19.7-17.9-19.7  c-9.7,0-17.7,7.5-17.7,19.7v0.2c0,11.9,8.2,19.7,17.7,19.7C603.5,357,611.9,349.1,611.9,337.3"></path></svg>
