<?xml version="1.0" encoding="utf-8"?>
<!-- Generator: Adobe Illustrator 25.0.1, SVG Export Plug-In . SVG Version: 6.00 Build 0)  -->
<svg version="1.0" id="Layer_1" xmlns="http://www.w3.org/2000/svg" xmlns:xlink="http://www.w3.org/1999/xlink" x="0px" y="0px"
	 viewBox="0 0 216 135" style="enable-background:new 0 0 216 135;" xml:space="preserve">
<style type="text/css">
	.st0{clip-path:url(#SVGID_2_);}
	.st1{fill:url(#SVGID_3_);}
	.st2{fill:url(#SVGID_4_);}
	.st3{fill:url(#SVGID_5_);}
	.st4{fill:url(#SVGID_6_);}
	.st5{fill:url(#SVGID_7_);}
	.st6{fill:url(#SVGID_8_);}
	.st7{fill:url(#SVGID_9_);}
	.st8{fill:url(#SVGID_10_);}
	.st9{fill:url(#SVGID_11_);}
	.st10{fill:url(#SVGID_12_);}
	.st11{fill:url(#SVGID_13_);}
	.st12{fill:url(#SVGID_14_);}
	.st13{fill:url(#SVGID_15_);}
	.st14{fill:url(#SVGID_16_);}
	.st15{fill:url(#SVGID_17_);}
	.st16{fill:url(#SVGID_18_);}
	.st17{fill:url(#SVGID_19_);}
	.st18{fill:url(#SVGID_20_);}
	.st19{fill:url(#SVGID_21_);}
	.st20{fill:url(#SVGID_22_);}
	.st21{fill:url(#SVGID_23_);}
	.st22{fill:url(#SVGID_24_);}
	.st23{fill:url(#SVGID_25_);}
	.st24{fill:url(#SVGID_26_);}
	.st25{fill:url(#SVGID_27_);}
	.st26{fill:url(#SVGID_28_);}
	.st27{fill:url(#SVGID_29_);}
	.st28{fill:url(#SVGID_30_);}
	.st29{fill:url(#SVGID_31_);}
	.st30{fill:url(#SVGID_32_);}
	.st31{fill:url(#SVGID_33_);}
	.st32{fill:url(#SVGID_34_);}
	.st33{fill:url(#SVGID_35_);}
	.st34{fill:url(#SVGID_36_);}
	.st35{fill:url(#SVGID_37_);}
	.st36{fill:none;}
</style>
<g>
	<defs>
		<rect id="SVGID_1_" x="21.1" y="43.6" width="173.7" height="47.8"/>
	</defs>
	<clipPath id="SVGID_2_">
		<use xlink:href="#SVGID_1_"  style="overflow:visible;"/>
	</clipPath>
	<g class="st0">
		<path d="M103.8,52.2h4.6l-6.7,20.2h-5.3l-5-15.2l-5,15.3h-5.2l-6.7-20.3h4.7L84,67.6l4.9-15.4h5L99,67.7L103.8,52.2z"/>
		<path d="M128.1,64h-14.9c0.1,1,0.5,2,1.1,2.9c0.6,0.7,1.3,1.3,2.1,1.7c0.9,0.4,1.8,0.6,2.7,0.6c1.1,0,2.1-0.2,3.1-0.6
			c1-0.4,1.9-0.9,2.8-1.6l2.2,3.1c-1.1,1-2.4,1.7-3.8,2.2c-1.5,0.4-3,0.7-4.5,0.7c-1.9,0-3.7-0.4-5.4-1.3c-1.6-0.9-2.8-2.2-3.6-3.8
			c-0.9-1.7-1.3-3.7-1.3-5.6c0-1.9,0.4-3.8,1.3-5.6c0.8-1.6,2.1-2.9,3.6-3.8c1.6-0.9,3.4-1.4,5.2-1.3c3.5-0.1,6.8,1.9,8.3,5.1
			c0.8,1.7,1.3,3.6,1.2,5.6C128.1,62.9,128.1,63.4,128.1,64z M123.7,60.6c-0.1-1.4-0.8-2.7-1.7-3.7c-0.9-0.9-2.1-1.3-3.4-1.3
			c-1.3-0.1-2.7,0.4-3.6,1.4c-1,1-1.6,2.3-1.7,3.6L123.7,60.6z"/>
		<path d="M146.9,53.1c1.5,0.9,2.8,2.2,3.6,3.8c1.8,3.4,1.8,7.6,0,11c-0.8,1.6-2.1,2.9-3.6,3.8c-1.5,0.9-3.3,1.4-5.1,1.3
			c-1.3,0-2.5-0.2-3.6-0.7c-1.1-0.5-2-1.2-2.7-2.2v2.4H131V43.7h4.4v11c1.5-1.9,3.9-3,6.4-2.9C143.6,51.7,145.3,52.1,146.9,53.1
			L146.9,53.1z M144.5,68c0.9-0.6,1.7-1.4,2.1-2.3c0.5-1,0.7-2.1,0.7-3.3c0-1.1-0.2-2.3-0.7-3.3c-0.5-1-1.2-1.8-2.1-2.3
			c-2-1.1-4.4-1.1-6.4,0c-0.9,0.6-1.6,1.4-2.1,2.3c-0.5,1-0.8,2.2-0.7,3.3c0,1.2,0.2,2.3,0.7,3.3c0.5,1,1.2,1.8,2.1,2.3
			c1,0.6,2.1,0.9,3.2,0.9C142.5,68.9,143.6,68.5,144.5,68L144.5,68z"/>
		<path d="M173.8,64h-14.9c0.1,1,0.5,2,1.1,2.9c0.5,0.7,1.3,1.3,2.1,1.7c0.9,0.4,1.8,0.6,2.7,0.6c1.1,0,2.1-0.2,3.1-0.6
			c1-0.4,1.9-0.9,2.8-1.6l2.2,3.1c-1.1,1-2.4,1.7-3.9,2.2c-1.5,0.4-3,0.7-4.5,0.7c-1.9,0-3.7-0.4-5.4-1.3c-1.6-0.9-2.8-2.2-3.6-3.8
			c-0.9-1.7-1.3-3.7-1.3-5.6c0-1.9,0.4-3.8,1.3-5.6c0.8-1.6,2.1-2.9,3.6-3.8c1.6-0.9,3.4-1.4,5.2-1.3c3.6-0.1,6.8,1.9,8.4,5.1
			c0.9,1.7,1.3,3.6,1.3,5.6C173.9,62.8,173.9,63.3,173.8,64z M169.3,60.6c-0.1-1.4-0.8-2.7-1.7-3.7c-0.9-0.9-2.2-1.4-3.4-1.3
			c-1.3-0.1-2.7,0.4-3.6,1.4c-1,1-1.6,2.3-1.7,3.6L169.3,60.6z"/>
		<path d="M194.9,72.5h-5.4l-5.1-7l-5,7h-5.2l7.6-10.3l-7.6-9.9h5.4l4.9,6.8l4.9-6.8h5.2l-7.5,9.9L194.9,72.5z"/>
		<path d="M141.7,89.2h-0.9v-8.1h1.1v3.1c0.2-0.3,0.5-0.6,0.9-0.7c0.3-0.2,0.7-0.2,1.1-0.2c0.4,0,0.8,0.1,1.1,0.2
			c0.3,0.2,0.6,0.4,0.9,0.7c0.4,0.6,0.7,1.4,0.6,2.2c0,0.9-0.3,1.8-0.9,2.5c-0.2,0.2-0.5,0.4-0.9,0.6c-0.3,0.1-0.7,0.2-1,0.2
			c-0.4,0-0.8-0.1-1.1-0.2c-0.3-0.2-0.6-0.4-0.9-0.7L141.7,89.2z M145.3,86.2c0-0.6-0.2-1.2-0.6-1.7c-0.2-0.2-0.3-0.3-0.6-0.4
			c-0.2-0.1-0.4-0.1-0.6-0.1c-0.3,0-0.5,0.1-0.7,0.1c-0.2,0.1-0.4,0.2-0.6,0.4c-0.3,0.4-0.5,1-0.4,1.5c0,0.6,0.2,1.2,0.6,1.7
			c0.1,0.2,0.3,0.3,0.6,0.4c0.2,0.1,0.4,0.1,0.7,0.1c0.2,0,0.5-0.1,0.7-0.1c0.2-0.1,0.4-0.3,0.6-0.5
			C145.3,87.3,145.4,86.7,145.3,86.2L145.3,86.2z"/>
		<path d="M152.3,83.3l-2,6c-0.2,0.6-0.4,1.1-0.8,1.6c-0.1,0.2-0.3,0.3-0.5,0.4c-0.2,0.1-0.4,0.1-0.6,0.1c-0.2,0-0.5,0-0.7-0.1v-0.9
			c0.2,0.1,0.4,0.1,0.6,0.1c0.1,0,0.2,0,0.3-0.1c0.1,0,0.2-0.1,0.2-0.2c0.2-0.3,0.4-0.7,0.5-1h-0.4l-2.1-5.9h1.2l1.7,5l1.7-5
			L152.3,83.3z"/>
		<path d="M167.2,81.1h-2v8.2h2V81.1z"/>
		<path d="M183.8,83.4c-0.5-0.3-1.1-0.4-1.7-0.4c-1.2-0.1-2.2,0.8-2.3,2c0,0,0,0.1,0,0.1c0,1.2,0.9,2.1,2,2.2c0.1,0,0.2,0,0.2,0
			c0.6,0,1.2-0.1,1.7-0.4v2.2c-0.6,0.2-1.2,0.3-1.9,0.3c-2.3,0-4.2-1.9-4.2-4.2s1.9-4.2,4.2-4.2c0.6,0,1.3,0.1,1.9,0.3V83.4z"/>
		<path d="M162.3,83.4c-0.5-0.3-1.1-0.4-1.7-0.4c-1.2-0.1-2.2,0.8-2.3,2c0,0.1,0,0.1,0,0.2c0,1.2,0.9,2.1,2,2.2c0.1,0,0.2,0,0.2,0
			c0.6,0,1.2-0.1,1.7-0.4v2.2c-0.6,0.2-1.3,0.3-1.9,0.3c-2.3,0-4.2-1.9-4.2-4.2s1.9-4.2,4.2-4.2c0.6,0,1.3,0.1,1.9,0.3V83.4z"/>
		<path d="M190.3,83c-0.6,0-1.1,0.3-1.5,0.7c-0.2,0.2-0.3,0.4-0.4,0.7c-0.1,0.2-0.2,0.5-0.1,0.8c0,0.3,0,0.5,0.1,0.8
			c0.1,0.2,0.2,0.5,0.4,0.7c0.2,0.2,0.4,0.4,0.7,0.5c0.3,0.1,0.5,0.2,0.8,0.2c0.3,0,0.6-0.1,0.8-0.2c0.3-0.1,0.5-0.3,0.7-0.5
			c0.2-0.2,0.3-0.4,0.4-0.7c0.1-0.2,0.2-0.5,0.1-0.8c0-0.3,0-0.5-0.1-0.8c-0.1-0.2-0.2-0.5-0.4-0.7c-0.2-0.2-0.4-0.4-0.7-0.5
			C190.9,83.1,190.6,83,190.3,83z M194.6,85.1c0,2.4-1.9,4.4-4.2,4.4s-4.4-1.9-4.4-4.2c0-2.4,1.9-4.4,4.2-4.4c0,0,0,0,0.1,0
			C192.6,80.8,194.6,82.7,194.6,85.1C194.6,85.1,194.6,85.1,194.6,85.1z"/>
		<path d="M175,82.9c-0.5-0.1-1.1-0.2-1.6-0.2c-0.8,0-1.3,0.2-1.3,0.7s0.6,0.7,0.9,0.8l0.6,0.2c1.1,0.2,2,1.2,2,2.3
			c0,2-1.8,2.7-3.4,2.7c-0.7,0-1.5-0.1-2.2-0.2v-1.9c0.6,0.2,1.3,0.3,2,0.3c1.1,0,1.5-0.3,1.5-0.7s-0.4-0.7-0.9-0.8l-0.4-0.1
			c-1.2-0.2-2-1.2-2.1-2.4c0-1.5,1.1-2.5,3-2.5c0.7,0,1.3,0.1,2,0.2V82.9z"/>
		
			<linearGradient id="SVGID_3_" gradientUnits="userSpaceOnUse" x1="30.1052" y1="-120.8282" x2="63.8752" y2="-107.1782" gradientTransform="matrix(1 0 0 -1 -7 -56.22)">
			<stop  offset="0.13" style="stop-color:#1CBBF3"/>
			<stop  offset="0.34" style="stop-color:#1F99A5"/>
			<stop  offset="0.45" style="stop-color:#209CA6"/>
			<stop  offset="0.51" style="stop-color:#24A4AA"/>
			<stop  offset="0.57" style="stop-color:#2BB3B0"/>
			<stop  offset="0.6" style="stop-color:#30BDB4"/>
			<stop  offset="0.79" style="stop-color:#38BA90"/>
			<stop  offset="1" style="stop-color:#60F05A"/>
		</linearGradient>
		<path class="st1" d="M31.1,59.3c0.5,1.7,1.2,3.3,2,4.9c0.3,0.7,0.8,1.3,1.4,1.8l0.4,0.2c1,0.2,1.5-0.6,1.9-1.3
			c0.5-1.2,0.9-2.4,1.2-3.6c0.1-0.2,0.1-0.4,0.2-0.7c0.1-0.4,0.2-0.9,0.3-1.3l4.4-11.7c0.9-1.2,2.1-2.2,3.5-2.9
			c1.3-0.7,2.8-1.1,4.3-1.1c2.2,0,4.3,0.8,6,2.1c2.9,2.2,4.6,6.5,4.6,6.5c0.2,0.6,0.4,1.2,0.4,1.8c0,0.6-0.1,1.1-0.3,1.7
			c-0.3,0.5-0.6,1-0.9,1.4c-0.4,0.4-0.9,0.7-1.4,0.9c-0.5,0.2-1.1,0.3-1.7,0.3c-0.6,0-1.2-0.1-1.8-0.4c-0.6-0.3-1.1-0.7-1.5-1.1
			c0,0,0-0.1-0.1-0.1c-0.3-0.4-0.5-0.8-0.7-1.2c-0.2-0.5-0.5-1-0.8-1.5c-0.2-0.2-0.3-0.5-0.5-0.7c-0.1-0.2-0.3-0.5-0.6-0.6
			c-0.4-0.3-0.9-0.4-1.3-0.2L50,52.4c-0.5,0.4-0.8,0.9-1,1.5c-0.6,1.5-1.1,3-1.5,4.6l-0.2,0.9l-1.8,5.9L43,70.9
			c-0.9,1.2-2.1,2.1-3.5,2.8c-1.3,0.6-2.8,1-4.3,1c-6.2,0.1-9.1-5.5-9.1-5.5c-3.5-5.8-4.5-13.4-4.8-15.9c-0.1-0.3-0.1-0.6-0.1-0.9
			c0-0.8,0.2-1.5,0.6-2.2c0.4-0.7,0.9-1.2,1.6-1.6c0.7-0.3,1.5-0.5,2.3-0.5c1.3,0.1,2.5,0.7,3.3,1.8c0.5,0.9,0.8,1.8,0.8,2.8
			C30,55,30.5,57.2,31.1,59.3L31.1,59.3z"/>
		
			<radialGradient id="SVGID_4_" cx="-364.9377" cy="515.7197" r="0.62" gradientTransform="matrix(7.08 25.23 19.17 -5.38 -7257.0903 12038.2695)" gradientUnits="userSpaceOnUse">
			<stop  offset="0" style="stop-color:#227B60"/>
			<stop  offset="0.14" style="stop-color:#227B60;stop-opacity:0.81"/>
			<stop  offset="0.58" style="stop-color:#227B60;stop-opacity:0.23"/>
			<stop  offset="0.78" style="stop-color:#227B60;stop-opacity:0"/>
		</radialGradient>
		<path class="st2" d="M31.1,59.3c0.5,1.7,1.2,3.3,2,4.9c0.3,0.7,0.8,1.3,1.4,1.8l0.4,0.2c1,0.2,1.5-0.6,1.9-1.3
			c0.5-1.2,0.9-2.4,1.2-3.6c0.1-0.2,0.1-0.4,0.2-0.7c0.1-0.4,0.2-0.9,0.3-1.3l4.4-11.7c0.9-1.2,2.1-2.2,3.5-2.9
			c1.3-0.7,2.8-1.1,4.3-1.1c2.2,0,4.3,0.8,6,2.1c2.9,2.2,4.6,6.5,4.6,6.5c0.2,0.6,0.4,1.2,0.4,1.8c0,0.6-0.1,1.1-0.3,1.7
			c-0.3,0.5-0.6,1-0.9,1.4c-0.4,0.4-0.9,0.7-1.4,0.9c-0.5,0.2-1.1,0.3-1.7,0.3c-0.6,0-1.2-0.1-1.8-0.4c-0.6-0.3-1.1-0.7-1.5-1.1
			c0,0,0-0.1-0.1-0.1c-0.3-0.4-0.5-0.8-0.7-1.2c-0.2-0.5-0.5-1-0.8-1.5c-0.2-0.2-0.3-0.5-0.5-0.7c-0.1-0.2-0.3-0.5-0.6-0.6
			c-0.4-0.3-0.9-0.4-1.3-0.2L50,52.4c-0.5,0.4-0.8,0.9-1,1.5c-0.6,1.5-1.1,3-1.5,4.6l-0.2,0.9l-1.8,5.9L43,70.9
			c-0.9,1.2-2.1,2.1-3.5,2.8c-1.3,0.6-2.8,1-4.3,1c-6.2,0.1-9.1-5.5-9.1-5.5c-3.5-5.8-4.5-13.4-4.8-15.9c-0.1-0.3-0.1-0.6-0.1-0.9
			c0-0.8,0.2-1.5,0.6-2.2c0.4-0.7,0.9-1.2,1.6-1.6c0.7-0.3,1.5-0.5,2.3-0.5c1.3,0.1,2.5,0.7,3.3,1.8c0.5,0.9,0.8,1.8,0.8,2.8
			C30,55,30.5,57.2,31.1,59.3L31.1,59.3z"/>
		
			<radialGradient id="SVGID_5_" cx="-357.7804" cy="535.0428" r="0.62" gradientTransform="matrix(-0.35 17.71 13.46 0.27 -7279.3003 6247.5898)" gradientUnits="userSpaceOnUse">
			<stop  offset="0" style="stop-color:#227B60"/>
			<stop  offset="0.25" style="stop-color:#227B60;stop-opacity:0.7"/>
			<stop  offset="0.71" style="stop-color:#227B60;stop-opacity:0.2"/>
			<stop  offset="0.92" style="stop-color:#227B60;stop-opacity:0"/>
		</radialGradient>
		<path class="st3" d="M31.1,59.3c0.5,1.7,1.2,3.3,2,4.9c0.3,0.7,0.8,1.3,1.4,1.8l0.4,0.2c1,0.2,1.5-0.6,1.9-1.3
			c0.5-1.2,0.9-2.4,1.2-3.6c0.1-0.2,0.1-0.4,0.2-0.7c0.1-0.4,0.2-0.9,0.3-1.3l4.4-11.7c0.9-1.2,2.1-2.2,3.5-2.9
			c1.3-0.7,2.8-1.1,4.3-1.1c2.2,0,4.3,0.8,6,2.1c2.9,2.2,4.6,6.5,4.6,6.5c0.2,0.6,0.4,1.2,0.4,1.8c0,0.6-0.1,1.1-0.3,1.7
			c-0.3,0.5-0.6,1-0.9,1.4c-0.4,0.4-0.9,0.7-1.4,0.9c-0.5,0.2-1.1,0.3-1.7,0.3c-0.6,0-1.2-0.1-1.8-0.4c-0.6-0.3-1.1-0.7-1.5-1.1
			c0,0,0-0.1-0.1-0.1c-0.3-0.4-0.5-0.8-0.7-1.2c-0.2-0.5-0.5-1-0.8-1.5c-0.2-0.2-0.3-0.5-0.5-0.7c-0.1-0.2-0.3-0.5-0.6-0.6
			c-0.4-0.3-0.9-0.4-1.3-0.2L50,52.4c-0.5,0.4-0.8,0.9-1,1.5c-0.6,1.5-1.1,3-1.5,4.6l-0.2,0.9l-1.8,5.9L43,70.9
			c-0.9,1.2-2.1,2.1-3.5,2.8c-1.3,0.6-2.8,1-4.3,1c-6.2,0.1-9.1-5.5-9.1-5.5c-3.5-5.8-4.5-13.4-4.8-15.9c-0.1-0.3-0.1-0.6-0.1-0.9
			c0-0.8,0.2-1.5,0.6-2.2c0.4-0.7,0.9-1.2,1.6-1.6c0.7-0.3,1.5-0.5,2.3-0.5c1.3,0.1,2.5,0.7,3.3,1.8c0.5,0.9,0.8,1.8,0.8,2.8
			C30,55,30.5,57.2,31.1,59.3L31.1,59.3z"/>
		
			<radialGradient id="SVGID_6_" cx="-354.2972" cy="537.3737" r="0.62" gradientTransform="matrix(0.4 16.51 11.72 -0.29 -6108.9302 6060.6201)" gradientUnits="userSpaceOnUse">
			<stop  offset="0" style="stop-color:#227B60"/>
			<stop  offset="7.000000e-02" style="stop-color:#227B60;stop-opacity:0.9"/>
			<stop  offset="0.34" style="stop-color:#227B60;stop-opacity:0.51"/>
			<stop  offset="0.59" style="stop-color:#227B60;stop-opacity:0.23"/>
			<stop  offset="0.79" style="stop-color:#227B60;stop-opacity:6.000000e-02"/>
			<stop  offset="0.92" style="stop-color:#227B60;stop-opacity:0"/>
		</radialGradient>
		<path class="st4" d="M31.1,59.3c0.5,1.7,1.2,3.3,2,4.9c0.3,0.7,0.8,1.3,1.4,1.8l0.4,0.2c1,0.2,1.5-0.6,1.9-1.3
			c0.5-1.2,0.9-2.4,1.2-3.6c0.1-0.2,0.1-0.4,0.2-0.7c0.1-0.4,0.2-0.9,0.3-1.3l4.4-11.7c0.9-1.2,2.1-2.2,3.5-2.9
			c1.3-0.7,2.8-1.1,4.3-1.1c2.2,0,4.3,0.8,6,2.1c2.9,2.2,4.6,6.5,4.6,6.5c0.2,0.6,0.4,1.2,0.4,1.8c0,0.6-0.1,1.1-0.3,1.7
			c-0.3,0.5-0.6,1-0.9,1.4c-0.4,0.4-0.9,0.7-1.4,0.9c-0.5,0.2-1.1,0.3-1.7,0.3c-0.6,0-1.2-0.1-1.8-0.4c-0.6-0.3-1.1-0.7-1.5-1.1
			c0,0,0-0.1-0.1-0.1c-0.3-0.4-0.5-0.8-0.7-1.2c-0.2-0.5-0.5-1-0.8-1.5c-0.2-0.2-0.3-0.5-0.5-0.7c-0.1-0.2-0.3-0.5-0.6-0.6
			c-0.4-0.3-0.9-0.4-1.3-0.2L50,52.4c-0.5,0.4-0.8,0.9-1,1.5c-0.6,1.5-1.1,3-1.5,4.6l-0.2,0.9l-1.8,5.9L43,70.9
			c-0.9,1.2-2.1,2.1-3.5,2.8c-1.3,0.6-2.8,1-4.3,1c-6.2,0.1-9.1-5.5-9.1-5.5c-3.5-5.8-4.5-13.4-4.8-15.9c-0.1-0.3-0.1-0.6-0.1-0.9
			c0-0.8,0.2-1.5,0.6-2.2c0.4-0.7,0.9-1.2,1.6-1.6c0.7-0.3,1.5-0.5,2.3-0.5c1.3,0.1,2.5,0.7,3.3,1.8c0.5,0.9,0.8,1.8,0.8,2.8
			C30,55,30.5,57.2,31.1,59.3L31.1,59.3z"/>
		
			<radialGradient id="SVGID_7_" cx="-345.5249" cy="545.2252" r="0.62" gradientTransform="matrix(0.33 13.33 9.47 -0.23 -5001.1699 4786.9502)" gradientUnits="userSpaceOnUse">
			<stop  offset="0" style="stop-color:#227B60"/>
			<stop  offset="0.36" style="stop-color:#227B60;stop-opacity:0.63"/>
			<stop  offset="0.92" style="stop-color:#227B60;stop-opacity:0"/>
		</radialGradient>
		<path class="st5" d="M31.1,59.3c0.5,1.7,1.2,3.3,2,4.9c0.3,0.7,0.8,1.3,1.4,1.8l0.4,0.2c1,0.2,1.5-0.6,1.9-1.3
			c0.5-1.2,0.9-2.4,1.2-3.6c0.1-0.2,0.1-0.4,0.2-0.7c0.1-0.4,0.2-0.9,0.3-1.3l4.4-11.7c0.9-1.2,2.1-2.2,3.5-2.9
			c1.3-0.7,2.8-1.1,4.3-1.1c2.2,0,4.3,0.8,6,2.1c2.9,2.2,4.6,6.5,4.6,6.5c0.2,0.6,0.4,1.2,0.4,1.8c0,0.6-0.1,1.1-0.3,1.7
			c-0.3,0.5-0.6,1-0.9,1.4c-0.4,0.4-0.9,0.7-1.4,0.9c-0.5,0.2-1.1,0.3-1.7,0.3c-0.6,0-1.2-0.1-1.8-0.4c-0.6-0.3-1.1-0.7-1.5-1.1
			c0,0,0-0.1-0.1-0.1c-0.3-0.4-0.5-0.8-0.7-1.2c-0.2-0.5-0.5-1-0.8-1.5c-0.2-0.2-0.3-0.5-0.5-0.7c-0.1-0.2-0.3-0.5-0.6-0.6
			c-0.4-0.3-0.9-0.4-1.3-0.2L50,52.4c-0.5,0.4-0.8,0.9-1,1.5c-0.6,1.5-1.1,3-1.5,4.6l-0.2,0.9l-1.8,5.9L43,70.9
			c-0.9,1.2-2.1,2.1-3.5,2.8c-1.3,0.6-2.8,1-4.3,1c-6.2,0.1-9.1-5.5-9.1-5.5c-3.5-5.8-4.5-13.4-4.8-15.9c-0.1-0.3-0.1-0.6-0.1-0.9
			c0-0.8,0.2-1.5,0.6-2.2c0.4-0.7,0.9-1.2,1.6-1.6c0.7-0.3,1.5-0.5,2.3-0.5c1.3,0.1,2.5,0.7,3.3,1.8c0.5,0.9,0.8,1.8,0.8,2.8
			C30,55,30.5,57.2,31.1,59.3L31.1,59.3z"/>
		
			<radialGradient id="SVGID_8_" cx="-333.9925" cy="561.2583" r="0.62" gradientTransform="matrix(0.26 10.63 6.8 -0.17 -3682.4502 3701.1702)" gradientUnits="userSpaceOnUse">
			<stop  offset="0" style="stop-color:#20735A"/>
			<stop  offset="0.15" style="stop-color:#20745A;stop-opacity:0.93"/>
			<stop  offset="0.38" style="stop-color:#21755C;stop-opacity:0.74"/>
			<stop  offset="0.67" style="stop-color:#21785D;stop-opacity:0.43"/>
			<stop  offset="1" style="stop-color:#227B60;stop-opacity:0"/>
		</radialGradient>
		<path class="st6" d="M31.1,59.3c0.5,1.7,1.2,3.3,2,4.9c0.3,0.7,0.8,1.3,1.4,1.8l0.4,0.2c1,0.2,1.5-0.6,1.9-1.3
			c0.5-1.2,0.9-2.4,1.2-3.6c0.1-0.2,0.1-0.4,0.2-0.7c0.1-0.4,0.2-0.9,0.3-1.3l4.4-11.7c0.9-1.2,2.1-2.2,3.5-2.9
			c1.3-0.7,2.8-1.1,4.3-1.1c2.2,0,4.3,0.8,6,2.1c2.9,2.2,4.6,6.5,4.6,6.5c0.2,0.6,0.4,1.2,0.4,1.8c0,0.6-0.1,1.1-0.3,1.7
			c-0.3,0.5-0.6,1-0.9,1.4c-0.4,0.4-0.9,0.7-1.4,0.9c-0.5,0.2-1.1,0.3-1.7,0.3c-0.6,0-1.2-0.1-1.8-0.4c-0.6-0.3-1.1-0.7-1.5-1.1
			c0,0,0-0.1-0.1-0.1c-0.3-0.4-0.5-0.8-0.7-1.2c-0.2-0.5-0.5-1-0.8-1.5c-0.2-0.2-0.3-0.5-0.5-0.7c-0.1-0.2-0.3-0.5-0.6-0.6
			c-0.4-0.3-0.9-0.4-1.3-0.2L50,52.4c-0.5,0.4-0.8,0.9-1,1.5c-0.6,1.5-1.1,3-1.5,4.6l-0.2,0.9l-1.8,5.9L43,70.9
			c-0.9,1.2-2.1,2.1-3.5,2.8c-1.3,0.6-2.8,1-4.3,1c-6.2,0.1-9.1-5.5-9.1-5.5c-3.5-5.8-4.5-13.4-4.8-15.9c-0.1-0.3-0.1-0.6-0.1-0.9
			c0-0.8,0.2-1.5,0.6-2.2c0.4-0.7,0.9-1.2,1.6-1.6c0.7-0.3,1.5-0.5,2.3-0.5c1.3,0.1,2.5,0.7,3.3,1.8c0.5,0.9,0.8,1.8,0.8,2.8
			C30,55,30.5,57.2,31.1,59.3L31.1,59.3z"/>
		
			<radialGradient id="SVGID_9_" cx="-355.4729" cy="474.4451" r="0.62" gradientTransform="matrix(15.66 6.91 5.18 -11.74 3157.9001 8083.3496)" gradientUnits="userSpaceOnUse">
			<stop  offset="0" style="stop-color:#227A61"/>
			<stop  offset="0.36" style="stop-color:#227A61;stop-opacity:0.56"/>
			<stop  offset="0.72" style="stop-color:#227A61;stop-opacity:0.16"/>
			<stop  offset="0.9" style="stop-color:#227A61;stop-opacity:0"/>
		</radialGradient>
		<path class="st7" d="M31.1,59.3c0.5,1.7,1.2,3.3,2,4.9c0.3,0.7,0.8,1.3,1.4,1.8l0.4,0.2c1,0.2,1.5-0.6,1.9-1.3
			c0.5-1.2,0.9-2.4,1.2-3.6c0.1-0.2,0.1-0.4,0.2-0.7c0.1-0.4,0.2-0.9,0.3-1.3l4.4-11.7c0.9-1.2,2.1-2.2,3.5-2.9
			c1.3-0.7,2.8-1.1,4.3-1.1c2.2,0,4.3,0.8,6,2.1c2.9,2.2,4.6,6.5,4.6,6.5c0.2,0.6,0.4,1.2,0.4,1.8c0,0.6-0.1,1.1-0.3,1.7
			c-0.3,0.5-0.6,1-0.9,1.4c-0.4,0.4-0.9,0.7-1.4,0.9c-0.5,0.2-1.1,0.3-1.7,0.3c-0.6,0-1.2-0.1-1.8-0.4c-0.6-0.3-1.1-0.7-1.5-1.1
			c0,0,0-0.1-0.1-0.1c-0.3-0.4-0.5-0.8-0.7-1.2c-0.2-0.5-0.5-1-0.8-1.5c-0.2-0.2-0.3-0.5-0.5-0.7c-0.1-0.2-0.3-0.5-0.6-0.6
			c-0.4-0.3-0.9-0.4-1.3-0.2L50,52.4c-0.5,0.4-0.8,0.9-1,1.5c-0.6,1.5-1.1,3-1.5,4.6l-0.2,0.9l-1.8,5.9L43,70.9
			c-0.9,1.2-2.1,2.1-3.5,2.8c-1.3,0.6-2.8,1-4.3,1c-6.2,0.1-9.1-5.5-9.1-5.5c-3.5-5.8-4.5-13.4-4.8-15.9c-0.1-0.3-0.1-0.6-0.1-0.9
			c0-0.8,0.2-1.5,0.6-2.2c0.4-0.7,0.9-1.2,1.6-1.6c0.7-0.3,1.5-0.5,2.3-0.5c1.3,0.1,2.5,0.7,3.3,1.8c0.5,0.9,0.8,1.8,0.8,2.8
			C30,55,30.5,57.2,31.1,59.3L31.1,59.3z"/>
		
			<radialGradient id="SVGID_10_" cx="-361.1956" cy="491.7375" r="0.62" gradientTransform="matrix(18.63 13.18 12.05 -17.04 849.1897 13179.3203)" gradientUnits="userSpaceOnUse">
			<stop  offset="0" style="stop-color:#3CD9C3"/>
			<stop  offset="7.000000e-02" style="stop-color:#3BD7C1;stop-opacity:0.9"/>
			<stop  offset="0.41" style="stop-color:#38CEB9;stop-opacity:0.42"/>
			<stop  offset="0.65" style="stop-color:#36C8B4;stop-opacity:0.12"/>
			<stop  offset="0.76" style="stop-color:#35C6B2;stop-opacity:0"/>
		</radialGradient>
		<path class="st8" d="M31.1,59.3c0.5,1.7,1.2,3.3,2,4.9c0.3,0.7,0.8,1.3,1.4,1.8l0.4,0.2c1,0.2,1.5-0.6,1.9-1.3
			c0.5-1.2,0.9-2.4,1.2-3.6c0.1-0.2,0.1-0.4,0.2-0.7c0.1-0.4,0.2-0.9,0.3-1.3l4.4-11.7c0.9-1.2,2.1-2.2,3.5-2.9
			c1.3-0.7,2.8-1.1,4.3-1.1c2.2,0,4.3,0.8,6,2.1c2.9,2.2,4.6,6.5,4.6,6.5c0.2,0.6,0.4,1.2,0.4,1.8c0,0.6-0.1,1.1-0.3,1.7
			c-0.3,0.5-0.6,1-0.9,1.4c-0.4,0.4-0.9,0.7-1.4,0.9c-0.5,0.2-1.1,0.3-1.7,0.3c-0.6,0-1.2-0.1-1.8-0.4c-0.6-0.3-1.1-0.7-1.5-1.1
			c0,0,0-0.1-0.1-0.1c-0.3-0.4-0.5-0.8-0.7-1.2c-0.2-0.5-0.5-1-0.8-1.5c-0.2-0.2-0.3-0.5-0.5-0.7c-0.1-0.2-0.3-0.5-0.6-0.6
			c-0.4-0.3-0.9-0.4-1.3-0.2L50,52.4c-0.5,0.4-0.8,0.9-1,1.5c-0.6,1.5-1.1,3-1.5,4.6l-0.2,0.9l-1.8,5.9L43,70.9
			c-0.9,1.2-2.1,2.1-3.5,2.8c-1.3,0.6-2.8,1-4.3,1c-6.2,0.1-9.1-5.5-9.1-5.5c-3.5-5.8-4.5-13.4-4.8-15.9c-0.1-0.3-0.1-0.6-0.1-0.9
			c0-0.8,0.2-1.5,0.6-2.2c0.4-0.7,0.9-1.2,1.6-1.6c0.7-0.3,1.5-0.5,2.3-0.5c1.3,0.1,2.5,0.7,3.3,1.8c0.5,0.9,0.8,1.8,0.8,2.8
			C30,55,30.5,57.2,31.1,59.3L31.1,59.3z"/>
		
			<radialGradient id="SVGID_11_" cx="-385.1498" cy="501.5044" r="0.62" gradientTransform="matrix(3310.55 2341.6101 1643.22 -2323.1799 427962 2035670.25)" gradientUnits="userSpaceOnUse">
			<stop  offset="0" style="stop-color:#3CD9C3"/>
			<stop  offset="7.000000e-02" style="stop-color:#3BD7C1;stop-opacity:0.9"/>
			<stop  offset="0.41" style="stop-color:#38CEB9;stop-opacity:0.42"/>
			<stop  offset="0.65" style="stop-color:#36C8B4;stop-opacity:0.12"/>
			<stop  offset="0.76" style="stop-color:#35C6B2;stop-opacity:0"/>
		</radialGradient>
		<path class="st9" d="M31.1,59.3c0.5,1.7,1.2,3.3,2,4.9c0.3,0.7,0.8,1.3,1.4,1.8l0.4,0.2c1,0.2,1.5-0.6,1.9-1.3
			c0.5-1.2,0.9-2.4,1.2-3.6c0.1-0.2,0.1-0.4,0.2-0.7c0.1-0.4,0.2-0.9,0.3-1.3l4.4-11.7c0.9-1.2,2.1-2.2,3.5-2.9
			c1.3-0.7,2.8-1.1,4.3-1.1c2.2,0,4.3,0.8,6,2.1c2.9,2.2,4.6,6.5,4.6,6.5c0.2,0.6,0.4,1.2,0.4,1.8c0,0.6-0.1,1.1-0.3,1.7
			c-0.3,0.5-0.6,1-0.9,1.4c-0.4,0.4-0.9,0.7-1.4,0.9c-0.5,0.2-1.1,0.3-1.7,0.3c-0.6,0-1.2-0.1-1.8-0.4c-0.6-0.3-1.1-0.7-1.5-1.1
			c0,0,0-0.1-0.1-0.1c-0.3-0.4-0.5-0.8-0.7-1.2c-0.2-0.5-0.5-1-0.8-1.5c-0.2-0.2-0.3-0.5-0.5-0.7c-0.1-0.2-0.3-0.5-0.6-0.6
			c-0.4-0.3-0.9-0.4-1.3-0.2L50,52.4c-0.5,0.4-0.8,0.9-1,1.5c-0.6,1.5-1.1,3-1.5,4.6l-0.2,0.9l-1.8,5.9L43,70.9
			c-0.9,1.2-2.1,2.1-3.5,2.8c-1.3,0.6-2.8,1-4.3,1c-6.2,0.1-9.1-5.5-9.1-5.5c-3.5-5.8-4.5-13.4-4.8-15.9c-0.1-0.3-0.1-0.6-0.1-0.9
			c0-0.8,0.2-1.5,0.6-2.2c0.4-0.7,0.9-1.2,1.6-1.6c0.7-0.3,1.5-0.5,2.3-0.5c1.3,0.1,2.5,0.7,3.3,1.8c0.5,0.9,0.8,1.8,0.8,2.8
			C30,55,30.5,57.2,31.1,59.3L31.1,59.3z"/>
		
			<radialGradient id="SVGID_12_" cx="-365.8127" cy="524.6304" r="0.62" gradientTransform="matrix(-3.83 19.76 24.42 4.73 -14161.8604 4806)" gradientUnits="userSpaceOnUse">
			<stop  offset="0" style="stop-color:#237F66;stop-opacity:0.8"/>
			<stop  offset="6.000000e-02" style="stop-color:#2C8C70;stop-opacity:0.65"/>
			<stop  offset="0.21" style="stop-color:#3DA785;stop-opacity:0.37"/>
			<stop  offset="0.35" style="stop-color:#4ABA93;stop-opacity:0.17"/>
			<stop  offset="0.47" style="stop-color:#51C59C;stop-opacity:4.000000e-02"/>
			<stop  offset="0.56" style="stop-color:#54C99F;stop-opacity:0"/>
		</radialGradient>
		<path class="st10" d="M31.1,59.3c0.5,1.7,1.2,3.3,2,4.9c0.3,0.7,0.8,1.3,1.4,1.8l0.4,0.2c1,0.2,1.5-0.6,1.9-1.3
			c0.5-1.2,0.9-2.4,1.2-3.6c0.1-0.2,0.1-0.4,0.2-0.7c0.1-0.4,0.2-0.9,0.3-1.3l4.4-11.7c0.9-1.2,2.1-2.2,3.5-2.9
			c1.3-0.7,2.8-1.1,4.3-1.1c2.2,0,4.3,0.8,6,2.1c2.9,2.2,4.6,6.5,4.6,6.5c0.2,0.6,0.4,1.2,0.4,1.8c0,0.6-0.1,1.1-0.3,1.7
			c-0.3,0.5-0.6,1-0.9,1.4c-0.4,0.4-0.9,0.7-1.4,0.9c-0.5,0.2-1.1,0.3-1.7,0.3c-0.6,0-1.2-0.1-1.8-0.4c-0.6-0.3-1.1-0.7-1.5-1.1
			c0,0,0-0.1-0.1-0.1c-0.3-0.4-0.5-0.8-0.7-1.2c-0.2-0.5-0.5-1-0.8-1.5c-0.2-0.2-0.3-0.5-0.5-0.7c-0.1-0.2-0.3-0.5-0.6-0.6
			c-0.4-0.3-0.9-0.4-1.3-0.2L50,52.4c-0.5,0.4-0.8,0.9-1,1.5c-0.6,1.5-1.1,3-1.5,4.6l-0.2,0.9l-1.8,5.9L43,70.9
			c-0.9,1.2-2.1,2.1-3.5,2.8c-1.3,0.6-2.8,1-4.3,1c-6.2,0.1-9.1-5.5-9.1-5.5c-3.5-5.8-4.5-13.4-4.8-15.9c-0.1-0.3-0.1-0.6-0.1-0.9
			c0-0.8,0.2-1.5,0.6-2.2c0.4-0.7,0.9-1.2,1.6-1.6c0.7-0.3,1.5-0.5,2.3-0.5c1.3,0.1,2.5,0.7,3.3,1.8c0.5,0.9,0.8,1.8,0.8,2.8
			C30,55,30.5,57.2,31.1,59.3L31.1,59.3z"/>
		
			<radialGradient id="SVGID_13_" cx="-398.7752" cy="480.0241" r="0.62" gradientTransform="matrix(16.62 -20.39 -22.02 -17.95 17241.7109 545.3405)" gradientUnits="userSpaceOnUse">
			<stop  offset="0" style="stop-color:#167C8A"/>
			<stop  offset="4.000000e-02" style="stop-color:#167C8A;stop-opacity:0.93"/>
			<stop  offset="0.33" style="stop-color:#177F8D;stop-opacity:0.43"/>
			<stop  offset="0.54" style="stop-color:#17818F;stop-opacity:0.12"/>
			<stop  offset="0.65" style="stop-color:#178290;stop-opacity:0"/>
		</radialGradient>
		<path class="st11" d="M31.1,59.3c0.5,1.7,1.2,3.3,2,4.9c0.3,0.7,0.8,1.3,1.4,1.8l0.4,0.2c1,0.2,1.5-0.6,1.9-1.3
			c0.5-1.2,0.9-2.4,1.2-3.6c0.1-0.2,0.1-0.4,0.2-0.7c0.1-0.4,0.2-0.9,0.3-1.3l4.4-11.7c0.9-1.2,2.1-2.2,3.5-2.9
			c1.3-0.7,2.8-1.1,4.3-1.1c2.2,0,4.3,0.8,6,2.1c2.9,2.2,4.6,6.5,4.6,6.5c0.2,0.6,0.4,1.2,0.4,1.8c0,0.6-0.1,1.1-0.3,1.7
			c-0.3,0.5-0.6,1-0.9,1.4c-0.4,0.4-0.9,0.7-1.4,0.9c-0.5,0.2-1.1,0.3-1.7,0.3c-0.6,0-1.2-0.1-1.8-0.4c-0.6-0.3-1.1-0.7-1.5-1.1
			c0,0,0-0.1-0.1-0.1c-0.3-0.4-0.5-0.8-0.7-1.2c-0.2-0.5-0.5-1-0.8-1.5c-0.2-0.2-0.3-0.5-0.5-0.7c-0.1-0.2-0.3-0.5-0.6-0.6
			c-0.4-0.3-0.9-0.4-1.3-0.2L50,52.4c-0.5,0.4-0.8,0.9-1,1.5c-0.6,1.5-1.1,3-1.5,4.6l-0.2,0.9l-1.8,5.9L43,70.9
			c-0.9,1.2-2.1,2.1-3.5,2.8c-1.3,0.6-2.8,1-4.3,1c-6.2,0.1-9.1-5.5-9.1-5.5c-3.5-5.8-4.5-13.4-4.8-15.9c-0.1-0.3-0.1-0.6-0.1-0.9
			c0-0.8,0.2-1.5,0.6-2.2c0.4-0.7,0.9-1.2,1.6-1.6c0.7-0.3,1.5-0.5,2.3-0.5c1.3,0.1,2.5,0.7,3.3,1.8c0.5,0.9,0.8,1.8,0.8,2.8
			C30,55,30.5,57.2,31.1,59.3L31.1,59.3z"/>
		
			<radialGradient id="SVGID_14_" cx="-389.6707" cy="468.8918" r="0.62" gradientTransform="matrix(21.84 -13.47 -10.64 -17.26 13542.7402 2905.5701)" gradientUnits="userSpaceOnUse">
			<stop  offset="5.000000e-02" style="stop-color:#177D87"/>
			<stop  offset="0.11" style="stop-color:#177E89;stop-opacity:0.8"/>
			<stop  offset="0.21" style="stop-color:#177F8B;stop-opacity:0.52"/>
			<stop  offset="0.32" style="stop-color:#17818D;stop-opacity:0.29"/>
			<stop  offset="0.42" style="stop-color:#17818F;stop-opacity:0.13"/>
			<stop  offset="0.51" style="stop-color:#178290;stop-opacity:3.000000e-02"/>
			<stop  offset="0.6" style="stop-color:#178290;stop-opacity:0"/>
		</radialGradient>
		<path class="st12" d="M31.1,59.3c0.5,1.7,1.2,3.3,2,4.9c0.3,0.7,0.8,1.3,1.4,1.8l0.4,0.2c1,0.2,1.5-0.6,1.9-1.3
			c0.5-1.2,0.9-2.4,1.2-3.6c0.1-0.2,0.1-0.4,0.2-0.7c0.1-0.4,0.2-0.9,0.3-1.3l4.4-11.7c0.9-1.2,2.1-2.2,3.5-2.9
			c1.3-0.7,2.8-1.1,4.3-1.1c2.2,0,4.3,0.8,6,2.1c2.9,2.2,4.6,6.5,4.6,6.5c0.2,0.6,0.4,1.2,0.4,1.8c0,0.6-0.1,1.1-0.3,1.7
			c-0.3,0.5-0.6,1-0.9,1.4c-0.4,0.4-0.9,0.7-1.4,0.9c-0.5,0.2-1.1,0.3-1.7,0.3c-0.6,0-1.2-0.1-1.8-0.4c-0.6-0.3-1.1-0.7-1.5-1.1
			c0,0,0-0.1-0.1-0.1c-0.3-0.4-0.5-0.8-0.7-1.2c-0.2-0.5-0.5-1-0.8-1.5c-0.2-0.2-0.3-0.5-0.5-0.7c-0.1-0.2-0.3-0.5-0.6-0.6
			c-0.4-0.3-0.9-0.4-1.3-0.2L50,52.4c-0.5,0.4-0.8,0.9-1,1.5c-0.6,1.5-1.1,3-1.5,4.6l-0.2,0.9l-1.8,5.9L43,70.9
			c-0.9,1.2-2.1,2.1-3.5,2.8c-1.3,0.6-2.8,1-4.3,1c-6.2,0.1-9.1-5.5-9.1-5.5c-3.5-5.8-4.5-13.4-4.8-15.9c-0.1-0.3-0.1-0.6-0.1-0.9
			c0-0.8,0.2-1.5,0.6-2.2c0.4-0.7,0.9-1.2,1.6-1.6c0.7-0.3,1.5-0.5,2.3-0.5c1.3,0.1,2.5,0.7,3.3,1.8c0.5,0.9,0.8,1.8,0.8,2.8
			C30,55,30.5,57.2,31.1,59.3L31.1,59.3z"/>
		
			<radialGradient id="SVGID_15_" cx="-437.7936" cy="510.5567" r="0.62" gradientTransform="matrix(-9.94 -11.62 -9.15 7.82 359.93 -9018.6104)" gradientUnits="userSpaceOnUse">
			<stop  offset="0.26" style="stop-color:#177F8A"/>
			<stop  offset="0.27" style="stop-color:#177F8A;stop-opacity:0.98"/>
			<stop  offset="0.38" style="stop-color:#17808C;stop-opacity:0.68"/>
			<stop  offset="0.5" style="stop-color:#17818D;stop-opacity:0.43"/>
			<stop  offset="0.62" style="stop-color:#17818F;stop-opacity:0.24"/>
			<stop  offset="0.74" style="stop-color:#17828F;stop-opacity:0.11"/>
			<stop  offset="0.86" style="stop-color:#178290;stop-opacity:3.000000e-02"/>
			<stop  offset="1" style="stop-color:#178290;stop-opacity:0"/>
		</radialGradient>
		<path class="st13" d="M31.1,59.3c0.5,1.7,1.2,3.3,2,4.9c0.3,0.7,0.8,1.3,1.4,1.8l0.4,0.2c1,0.2,1.5-0.6,1.9-1.3
			c0.5-1.2,0.9-2.4,1.2-3.6c0.1-0.2,0.1-0.4,0.2-0.7c0.1-0.4,0.2-0.9,0.3-1.3l4.4-11.7c0.9-1.2,2.1-2.2,3.5-2.9
			c1.3-0.7,2.8-1.1,4.3-1.1c2.2,0,4.3,0.8,6,2.1c2.9,2.2,4.6,6.5,4.6,6.5c0.2,0.6,0.4,1.2,0.4,1.8c0,0.6-0.1,1.1-0.3,1.7
			c-0.3,0.5-0.6,1-0.9,1.4c-0.4,0.4-0.9,0.7-1.4,0.9c-0.5,0.2-1.1,0.3-1.7,0.3c-0.6,0-1.2-0.1-1.8-0.4c-0.6-0.3-1.1-0.7-1.5-1.1
			c0,0,0-0.1-0.1-0.1c-0.3-0.4-0.5-0.8-0.7-1.2c-0.2-0.5-0.5-1-0.8-1.5c-0.2-0.2-0.3-0.5-0.5-0.7c-0.1-0.2-0.3-0.5-0.6-0.6
			c-0.4-0.3-0.9-0.4-1.3-0.2L50,52.4c-0.5,0.4-0.8,0.9-1,1.5c-0.6,1.5-1.1,3-1.5,4.6l-0.2,0.9l-1.8,5.9L43,70.9
			c-0.9,1.2-2.1,2.1-3.5,2.8c-1.3,0.6-2.8,1-4.3,1c-6.2,0.1-9.1-5.5-9.1-5.5c-3.5-5.8-4.5-13.4-4.8-15.9c-0.1-0.3-0.1-0.6-0.1-0.9
			c0-0.8,0.2-1.5,0.6-2.2c0.4-0.7,0.9-1.2,1.6-1.6c0.7-0.3,1.5-0.5,2.3-0.5c1.3,0.1,2.5,0.7,3.3,1.8c0.5,0.9,0.8,1.8,0.8,2.8
			C30,55,30.5,57.2,31.1,59.3L31.1,59.3z"/>
		
			<radialGradient id="SVGID_16_" cx="-424.2619" cy="541.7818" r="0.62" gradientTransform="matrix(-14.2364 -1.7203 -1.7203 14.2364 -5070.5723 -8378.6113)" gradientUnits="userSpaceOnUse">
			<stop  offset="0" style="stop-color:#13656E"/>
			<stop  offset="0.11" style="stop-color:#13646E;stop-opacity:0.73"/>
			<stop  offset="0.27" style="stop-color:#12646E;stop-opacity:0.41"/>
			<stop  offset="0.42" style="stop-color:#12636E;stop-opacity:0.18"/>
			<stop  offset="0.55" style="stop-color:#12636E;stop-opacity:5.000000e-02"/>
			<stop  offset="0.66" style="stop-color:#12636E;stop-opacity:0"/>
		</radialGradient>
		<path class="st14" d="M31.1,59.3c0.5,1.7,1.2,3.3,2,4.9c0.3,0.7,0.8,1.3,1.4,1.8l0.4,0.2c1,0.2,1.5-0.6,1.9-1.3
			c0.5-1.2,0.9-2.4,1.2-3.6c0.1-0.2,0.1-0.4,0.2-0.7c0.1-0.4,0.2-0.9,0.3-1.3l4.4-11.7c0.9-1.2,2.1-2.2,3.5-2.9
			c1.3-0.7,2.8-1.1,4.3-1.1c2.2,0,4.3,0.8,6,2.1c2.9,2.2,4.6,6.5,4.6,6.5c0.2,0.6,0.4,1.2,0.4,1.8c0,0.6-0.1,1.1-0.3,1.7
			c-0.3,0.5-0.6,1-0.9,1.4c-0.4,0.4-0.9,0.7-1.4,0.9c-0.5,0.2-1.1,0.3-1.7,0.3c-0.6,0-1.2-0.1-1.8-0.4c-0.6-0.3-1.1-0.7-1.5-1.1
			c0,0,0-0.1-0.1-0.1c-0.3-0.4-0.5-0.8-0.7-1.2c-0.2-0.5-0.5-1-0.8-1.5c-0.2-0.2-0.3-0.5-0.5-0.7c-0.1-0.2-0.3-0.5-0.6-0.6
			c-0.4-0.3-0.9-0.4-1.3-0.2L50,52.4c-0.5,0.4-0.8,0.9-1,1.5c-0.6,1.5-1.1,3-1.5,4.6l-0.2,0.9l-1.8,5.9L43,70.9
			c-0.9,1.2-2.1,2.1-3.5,2.8c-1.3,0.6-2.8,1-4.3,1c-6.2,0.1-9.1-5.5-9.1-5.5c-3.5-5.8-4.5-13.4-4.8-15.9c-0.1-0.3-0.1-0.6-0.1-0.9
			c0-0.8,0.2-1.5,0.6-2.2c0.4-0.7,0.9-1.2,1.6-1.6c0.7-0.3,1.5-0.5,2.3-0.5c1.3,0.1,2.5,0.7,3.3,1.8c0.5,0.9,0.8,1.8,0.8,2.8
			C30,55,30.5,57.2,31.1,59.3L31.1,59.3z"/>
		
			<radialGradient id="SVGID_17_" cx="-462.3103" cy="496.2599" r="0.62" gradientTransform="matrix(-4.91 -8.74 -7.35 4.13 1413.96 -6024.3701)" gradientUnits="userSpaceOnUse">
			<stop  offset="0.13" style="stop-color:#146A73"/>
			<stop  offset="0.24" style="stop-color:#156F79;stop-opacity:0.79"/>
			<stop  offset="0.45" style="stop-color:#167783;stop-opacity:0.45"/>
			<stop  offset="0.65" style="stop-color:#167D8A;stop-opacity:0.2"/>
			<stop  offset="0.82" style="stop-color:#17818E;stop-opacity:5.000000e-02"/>
			<stop  offset="0.95" style="stop-color:#178290;stop-opacity:0"/>
		</radialGradient>
		<path class="st15" d="M31.1,59.3c0.5,1.7,1.2,3.3,2,4.9c0.3,0.7,0.8,1.3,1.4,1.8l0.4,0.2c1,0.2,1.5-0.6,1.9-1.3
			c0.5-1.2,0.9-2.4,1.2-3.6c0.1-0.2,0.1-0.4,0.2-0.7c0.1-0.4,0.2-0.9,0.3-1.3l4.4-11.7c0.9-1.2,2.1-2.2,3.5-2.9
			c1.3-0.7,2.8-1.1,4.3-1.1c2.2,0,4.3,0.8,6,2.1c2.9,2.2,4.6,6.5,4.6,6.5c0.2,0.6,0.4,1.2,0.4,1.8c0,0.6-0.1,1.1-0.3,1.7
			c-0.3,0.5-0.6,1-0.9,1.4c-0.4,0.4-0.9,0.7-1.4,0.9c-0.5,0.2-1.1,0.3-1.7,0.3c-0.6,0-1.2-0.1-1.8-0.4c-0.6-0.3-1.1-0.7-1.5-1.1
			c0,0,0-0.1-0.1-0.1c-0.3-0.4-0.5-0.8-0.7-1.2c-0.2-0.5-0.5-1-0.8-1.5c-0.2-0.2-0.3-0.5-0.5-0.7c-0.1-0.2-0.3-0.5-0.6-0.6
			c-0.4-0.3-0.9-0.4-1.3-0.2L50,52.4c-0.5,0.4-0.8,0.9-1,1.5c-0.6,1.5-1.1,3-1.5,4.6l-0.2,0.9l-1.8,5.9L43,70.9
			c-0.9,1.2-2.1,2.1-3.5,2.8c-1.3,0.6-2.8,1-4.3,1c-6.2,0.1-9.1-5.5-9.1-5.5c-3.5-5.8-4.5-13.4-4.8-15.9c-0.1-0.3-0.1-0.6-0.1-0.9
			c0-0.8,0.2-1.5,0.6-2.2c0.4-0.7,0.9-1.2,1.6-1.6c0.7-0.3,1.5-0.5,2.3-0.5c1.3,0.1,2.5,0.7,3.3,1.8c0.5,0.9,0.8,1.8,0.8,2.8
			C30,55,30.5,57.2,31.1,59.3L31.1,59.3z"/>
		
			<radialGradient id="SVGID_18_" cx="-418.7353" cy="414.5235" r="0.62" gradientTransform="matrix(5.28 -7.82 -6.2 -4.18 4815.96 -1478.9102)" gradientUnits="userSpaceOnUse">
			<stop  offset="0" style="stop-color:#198E9C"/>
			<stop  offset="0.1" style="stop-color:#198E9C;stop-opacity:0.87"/>
			<stop  offset="0.41" style="stop-color:#198E9C;stop-opacity:0.5"/>
			<stop  offset="0.67" style="stop-color:#198E9C;stop-opacity:0.23"/>
			<stop  offset="0.88" style="stop-color:#198E9C;stop-opacity:6.000000e-02"/>
			<stop  offset="1" style="stop-color:#198E9C;stop-opacity:0"/>
		</radialGradient>
		<path class="st16" d="M31.1,59.3c0.5,1.7,1.2,3.3,2,4.9c0.3,0.7,0.8,1.3,1.4,1.8l0.4,0.2c1,0.2,1.5-0.6,1.9-1.3
			c0.5-1.2,0.9-2.4,1.2-3.6c0.1-0.2,0.1-0.4,0.2-0.7c0.1-0.4,0.2-0.9,0.3-1.3l4.4-11.7c0.9-1.2,2.1-2.2,3.5-2.9
			c1.3-0.7,2.8-1.1,4.3-1.1c2.2,0,4.3,0.8,6,2.1c2.9,2.2,4.6,6.5,4.6,6.5c0.2,0.6,0.4,1.2,0.4,1.8c0,0.6-0.1,1.1-0.3,1.7
			c-0.3,0.5-0.6,1-0.9,1.4c-0.4,0.4-0.9,0.7-1.4,0.9c-0.5,0.2-1.1,0.3-1.7,0.3c-0.6,0-1.2-0.1-1.8-0.4c-0.6-0.3-1.1-0.7-1.5-1.1
			c0,0,0-0.1-0.1-0.1c-0.3-0.4-0.5-0.8-0.7-1.2c-0.2-0.5-0.5-1-0.8-1.5c-0.2-0.2-0.3-0.5-0.5-0.7c-0.1-0.2-0.3-0.5-0.6-0.6
			c-0.4-0.3-0.9-0.4-1.3-0.2L50,52.4c-0.5,0.4-0.8,0.9-1,1.5c-0.6,1.5-1.1,3-1.5,4.6l-0.2,0.9l-1.8,5.9L43,70.9
			c-0.9,1.2-2.1,2.1-3.5,2.8c-1.3,0.6-2.8,1-4.3,1c-6.2,0.1-9.1-5.5-9.1-5.5c-3.5-5.8-4.5-13.4-4.8-15.9c-0.1-0.3-0.1-0.6-0.1-0.9
			c0-0.8,0.2-1.5,0.6-2.2c0.4-0.7,0.9-1.2,1.6-1.6c0.7-0.3,1.5-0.5,2.3-0.5c1.3,0.1,2.5,0.7,3.3,1.8c0.5,0.9,0.8,1.8,0.8,2.8
			C30,55,30.5,57.2,31.1,59.3L31.1,59.3z"/>
		
			<linearGradient id="SVGID_19_" gradientUnits="userSpaceOnUse" x1="32.2794" y1="-99.109" x2="47.1794" y2="-112.899" gradientTransform="matrix(1 0 0 -1 -7 -56.22)">
			<stop  offset="0.13" style="stop-color:#2BF9FF"/>
			<stop  offset="0.27" style="stop-color:#29F9FF;stop-opacity:0.64"/>
			<stop  offset="0.4" style="stop-color:#27FAFF;stop-opacity:0.3"/>
			<stop  offset="0.49" style="stop-color:#26FAFF;stop-opacity:8.000000e-02"/>
			<stop  offset="0.54" style="stop-color:#26FAFF;stop-opacity:0"/>
		</linearGradient>
		<path class="st17" d="M31.1,59.3c0.5,1.7,1.2,3.3,2,4.9c0.3,0.7,0.8,1.3,1.4,1.8l0.4,0.2c1,0.2,1.5-0.6,1.9-1.3
			c0.5-1.2,0.9-2.4,1.2-3.6c0.1-0.2,0.1-0.4,0.2-0.7c0.1-0.4,0.2-0.9,0.3-1.3l4.4-11.7c0.9-1.2,2.1-2.2,3.5-2.9
			c1.3-0.7,2.8-1.1,4.3-1.1c2.2,0,4.3,0.8,6,2.1c2.9,2.2,4.6,6.5,4.6,6.5c0.2,0.6,0.4,1.2,0.4,1.8c0,0.6-0.1,1.1-0.3,1.7
			c-0.3,0.5-0.6,1-0.9,1.4c-0.4,0.4-0.9,0.7-1.4,0.9c-0.5,0.2-1.1,0.3-1.7,0.3c-0.6,0-1.2-0.1-1.8-0.4c-0.6-0.3-1.1-0.7-1.5-1.1
			c0,0,0-0.1-0.1-0.1c-0.3-0.4-0.5-0.8-0.7-1.2c-0.2-0.5-0.5-1-0.8-1.5c-0.2-0.2-0.3-0.5-0.5-0.7c-0.1-0.2-0.3-0.5-0.6-0.6
			c-0.4-0.3-0.9-0.4-1.3-0.2L50,52.4c-0.5,0.4-0.8,0.9-1,1.5c-0.6,1.5-1.1,3-1.5,4.6l-0.2,0.9l-1.8,5.9L43,70.9
			c-0.9,1.2-2.1,2.1-3.5,2.8c-1.3,0.6-2.8,1-4.3,1c-6.2,0.1-9.1-5.5-9.1-5.5c-3.5-5.8-4.5-13.4-4.8-15.9c-0.1-0.3-0.1-0.6-0.1-0.9
			c0-0.8,0.2-1.5,0.6-2.2c0.4-0.7,0.9-1.2,1.6-1.6c0.7-0.3,1.5-0.5,2.3-0.5c1.3,0.1,2.5,0.7,3.3,1.8c0.5,0.9,0.8,1.8,0.8,2.8
			C30,55,30.5,57.2,31.1,59.3L31.1,59.3z"/>
		
			<linearGradient id="SVGID_20_" gradientUnits="userSpaceOnUse" x1="23.842" y1="-121.6219" x2="41.242" y2="-116.6919" gradientTransform="matrix(1 0 0 -1 -7 -56.22)">
			<stop  offset="0" style="stop-color:#26FAFF"/>
			<stop  offset="6.000000e-02" style="stop-color:#26FAFF;stop-opacity:0.88"/>
			<stop  offset="0.24" style="stop-color:#26FAFF;stop-opacity:0.51"/>
			<stop  offset="0.39" style="stop-color:#26FAFF;stop-opacity:0.23"/>
			<stop  offset="0.5" style="stop-color:#26FAFF;stop-opacity:6.000000e-02"/>
			<stop  offset="0.55" style="stop-color:#26FAFF;stop-opacity:0"/>
		</linearGradient>
		<path class="st18" d="M31.1,59.3c0.5,1.7,1.2,3.3,2,4.9c0.3,0.7,0.8,1.3,1.4,1.8l0.4,0.2c1,0.2,1.5-0.6,1.9-1.3
			c0.5-1.2,0.9-2.4,1.2-3.6c0.1-0.2,0.1-0.4,0.2-0.7c0.1-0.4,0.2-0.9,0.3-1.3l4.4-11.7c0.9-1.2,2.1-2.2,3.5-2.9
			c1.3-0.7,2.8-1.1,4.3-1.1c2.2,0,4.3,0.8,6,2.1c2.9,2.2,4.6,6.5,4.6,6.5c0.2,0.6,0.4,1.2,0.4,1.8c0,0.6-0.1,1.1-0.3,1.7
			c-0.3,0.5-0.6,1-0.9,1.4c-0.4,0.4-0.9,0.7-1.4,0.9c-0.5,0.2-1.1,0.3-1.7,0.3c-0.6,0-1.2-0.1-1.8-0.4c-0.6-0.3-1.1-0.7-1.5-1.1
			c0,0,0-0.1-0.1-0.1c-0.3-0.4-0.5-0.8-0.7-1.2c-0.2-0.5-0.5-1-0.8-1.5c-0.2-0.2-0.3-0.5-0.5-0.7c-0.1-0.2-0.3-0.5-0.6-0.6
			c-0.4-0.3-0.9-0.4-1.3-0.2L50,52.4c-0.5,0.4-0.8,0.9-1,1.5c-0.6,1.5-1.1,3-1.5,4.6l-0.2,0.9l-1.8,5.9L43,70.9
			c-0.9,1.2-2.1,2.1-3.5,2.8c-1.3,0.6-2.8,1-4.3,1c-6.2,0.1-9.1-5.5-9.1-5.5c-3.5-5.8-4.5-13.4-4.8-15.9c-0.1-0.3-0.1-0.6-0.1-0.9
			c0-0.8,0.2-1.5,0.6-2.2c0.4-0.7,0.9-1.2,1.6-1.6c0.7-0.3,1.5-0.5,2.3-0.5c1.3,0.1,2.5,0.7,3.3,1.8c0.5,0.9,0.8,1.8,0.8,2.8
			C30,55,30.5,57.2,31.1,59.3L31.1,59.3z"/>
		
			<linearGradient id="SVGID_21_" gradientUnits="userSpaceOnUse" x1="28.453" y1="-121.0305" x2="48.063" y2="-114.0305" gradientTransform="matrix(1 0 0 -1 -7 -56.22)">
			<stop  offset="0" style="stop-color:#21DEFF"/>
			<stop  offset="4.000000e-02" style="stop-color:#21DEFF;stop-opacity:0.88"/>
			<stop  offset="0.17" style="stop-color:#21DEFF;stop-opacity:0.51"/>
			<stop  offset="0.27" style="stop-color:#21DEFF;stop-opacity:0.23"/>
			<stop  offset="0.34" style="stop-color:#21DEFF;stop-opacity:6.000000e-02"/>
			<stop  offset="0.38" style="stop-color:#21DEFF;stop-opacity:0"/>
		</linearGradient>
		<path class="st19" d="M31.1,59.3c0.5,1.7,1.2,3.3,2,4.9c0.3,0.7,0.8,1.3,1.4,1.8l0.4,0.2c1,0.2,1.5-0.6,1.9-1.3
			c0.5-1.2,0.9-2.4,1.2-3.6c0.1-0.2,0.1-0.4,0.2-0.7c0.1-0.4,0.2-0.9,0.3-1.3l4.4-11.7c0.9-1.2,2.1-2.2,3.5-2.9
			c1.3-0.7,2.8-1.1,4.3-1.1c2.2,0,4.3,0.8,6,2.1c2.9,2.2,4.6,6.5,4.6,6.5c0.2,0.6,0.4,1.2,0.4,1.8c0,0.6-0.1,1.1-0.3,1.7
			c-0.3,0.5-0.6,1-0.9,1.4c-0.4,0.4-0.9,0.7-1.4,0.9c-0.5,0.2-1.1,0.3-1.7,0.3c-0.6,0-1.2-0.1-1.8-0.4c-0.6-0.3-1.1-0.7-1.5-1.1
			c0,0,0-0.1-0.1-0.1c-0.3-0.4-0.5-0.8-0.7-1.2c-0.2-0.5-0.5-1-0.8-1.5c-0.2-0.2-0.3-0.5-0.5-0.7c-0.1-0.2-0.3-0.5-0.6-0.6
			c-0.4-0.3-0.9-0.4-1.3-0.2L50,52.4c-0.5,0.4-0.8,0.9-1,1.5c-0.6,1.5-1.1,3-1.5,4.6l-0.2,0.9l-1.8,5.9L43,70.9
			c-0.9,1.2-2.1,2.1-3.5,2.8c-1.3,0.6-2.8,1-4.3,1c-6.2,0.1-9.1-5.5-9.1-5.5c-3.5-5.8-4.5-13.4-4.8-15.9c-0.1-0.3-0.1-0.6-0.1-0.9
			c0-0.8,0.2-1.5,0.6-2.2c0.4-0.7,0.9-1.2,1.6-1.6c0.7-0.3,1.5-0.5,2.3-0.5c1.3,0.1,2.5,0.7,3.3,1.8c0.5,0.9,0.8,1.8,0.8,2.8
			C30,55,30.5,57.2,31.1,59.3L31.1,59.3z"/>
		
			<linearGradient id="SVGID_22_" gradientUnits="userSpaceOnUse" x1="47.1054" y1="-110.8805" x2="58.0754" y2="-128.7706" gradientTransform="matrix(1 0 0 -1 -7 -56.22)">
			<stop  offset="0.62" style="stop-color:#21DEFF;stop-opacity:0"/>
			<stop  offset="0.66" style="stop-color:#21DEFF;stop-opacity:6.000000e-02"/>
			<stop  offset="0.73" style="stop-color:#21DEFF;stop-opacity:0.23"/>
			<stop  offset="0.83" style="stop-color:#21DEFF;stop-opacity:0.51"/>
			<stop  offset="0.96" style="stop-color:#21DEFF;stop-opacity:0.88"/>
			<stop  offset="1" style="stop-color:#21DEFF"/>
		</linearGradient>
		<path class="st20" d="M31.1,59.3c0.5,1.7,1.2,3.3,2,4.9c0.3,0.7,0.8,1.3,1.4,1.8l0.4,0.2c1,0.2,1.5-0.6,1.9-1.3
			c0.5-1.2,0.9-2.4,1.2-3.6c0.1-0.2,0.1-0.4,0.2-0.7c0.1-0.4,0.2-0.9,0.3-1.3l4.4-11.7c0.9-1.2,2.1-2.2,3.5-2.9
			c1.3-0.7,2.8-1.1,4.3-1.1c2.2,0,4.3,0.8,6,2.1c2.9,2.2,4.6,6.5,4.6,6.5c0.2,0.6,0.4,1.2,0.4,1.8c0,0.6-0.1,1.1-0.3,1.7
			c-0.3,0.5-0.6,1-0.9,1.4c-0.4,0.4-0.9,0.7-1.4,0.9c-0.5,0.2-1.1,0.3-1.7,0.3c-0.6,0-1.2-0.1-1.8-0.4c-0.6-0.3-1.1-0.7-1.5-1.1
			c0,0,0-0.1-0.1-0.1c-0.3-0.4-0.5-0.8-0.7-1.2c-0.2-0.5-0.5-1-0.8-1.5c-0.2-0.2-0.3-0.5-0.5-0.7c-0.1-0.2-0.3-0.5-0.6-0.6
			c-0.4-0.3-0.9-0.4-1.3-0.2L50,52.4c-0.5,0.4-0.8,0.9-1,1.5c-0.6,1.5-1.1,3-1.5,4.6l-0.2,0.9l-1.8,5.9L43,70.9
			c-0.9,1.2-2.1,2.1-3.5,2.8c-1.3,0.6-2.8,1-4.3,1c-6.2,0.1-9.1-5.5-9.1-5.5c-3.5-5.8-4.5-13.4-4.8-15.9c-0.1-0.3-0.1-0.6-0.1-0.9
			c0-0.8,0.2-1.5,0.6-2.2c0.4-0.7,0.9-1.2,1.6-1.6c0.7-0.3,1.5-0.5,2.3-0.5c1.3,0.1,2.5,0.7,3.3,1.8c0.5,0.9,0.8,1.8,0.8,2.8
			C30,55,30.5,57.2,31.1,59.3L31.1,59.3z"/>
		
			<linearGradient id="SVGID_23_" gradientUnits="userSpaceOnUse" x1="59.2797" y1="-117.5842" x2="57.5597" y2="-109.1642" gradientTransform="matrix(1 0 0 -1 -7 -56.22)">
			<stop  offset="0" style="stop-color:#44B044"/>
			<stop  offset="0.11" style="stop-color:#44B044;stop-opacity:0.8"/>
			<stop  offset="0.27" style="stop-color:#44B044;stop-opacity:0.52"/>
			<stop  offset="0.43" style="stop-color:#44B044;stop-opacity:0.29"/>
			<stop  offset="0.58" style="stop-color:#44B044;stop-opacity:0.13"/>
			<stop  offset="0.7" style="stop-color:#44B044;stop-opacity:3.000000e-02"/>
			<stop  offset="0.8" style="stop-color:#44B044;stop-opacity:0"/>
		</linearGradient>
		<path class="st21" d="M40.1,54.9l2.8-7.4c0.9-1.2,2.1-2.2,3.5-2.9c1.4-0.6,2.9-1,4.4-1c2.2,0,4.3,0.8,6,2.1
			c2.9,2.2,4.6,6.5,4.6,6.5c0.2,0.6,0.4,1.2,0.4,1.8c0,0.6-0.1,1.1-0.3,1.7c-0.3,0.5-0.6,1-0.9,1.4c-0.4,0.4-0.9,0.7-1.4,0.9
			c-0.5,0.2-1.1,0.3-1.7,0.3c-0.6,0-1.2-0.1-1.8-0.4c-0.6-0.3-1.1-0.7-1.5-1.1c0,0,0-0.1-0.1-0.1c-0.3-0.4-0.5-0.8-0.7-1.2
			c-0.2-0.5-0.5-1-0.8-1.5c-0.2-0.2-0.3-0.5-0.5-0.7c-0.1-0.2-0.3-0.5-0.6-0.6c-0.4-0.3-0.9-0.4-1.3-0.2L50,52.4
			c-0.5,0.4-0.8,0.9-1,1.5c-0.6,1.5-1.1,3-1.5,4.6l-0.2,0.9l-1.8,5.9L40.1,54.9z"/>
		
			<linearGradient id="SVGID_24_" gradientUnits="userSpaceOnUse" x1="35.23" y1="-108.8201" x2="71.55" y2="-120.8401" gradientTransform="matrix(1 0 0 -1 -7 -56.22)">
			<stop  offset="0" style="stop-color:#3066FB"/>
			<stop  offset="0.38" style="stop-color:#2F64F7"/>
			<stop  offset="0.74" style="stop-color:#2857D9"/>
			<stop  offset="1" style="stop-color:#3C7EFF"/>
		</linearGradient>
		<path class="st22" d="M60.3,48.3c-0.3,0-0.7,0.1-1,0.1c0.8,1.2,1.5,2.4,2,3.7c0.2,0.6,0.4,1.2,0.4,1.8c0,0.6-0.1,1.1-0.3,1.7
			c-0.3,0.5-0.6,1-0.9,1.4c-0.4,0.4-0.9,0.8-1.4,0.9c-0.5,0.2-1.1,0.3-1.7,0.3c-0.8,0-1.5-0.2-2.2-0.6l-0.4,1.7
			c-0.3,1.3-0.8,2.5-1.4,3.7c-0.3,0.7-0.7,1.4-1.1,2.1c-0.3,0.4-0.7,0.8-1.2,1c-0.2,0-0.4,0.1-0.5,0.1c-0.2,0-0.4-0.1-0.6-0.2
			c-0.3-0.3-0.6-0.6-0.8-1c-0.2-0.4-0.4-0.8-0.6-1.3c-0.4-0.9-1-3.2-1-3.2L47,58.1l-0.6-2.4L46,54.1c-0.5-2.2-1.4-4.3-2.7-6.2
			c-1.2-1.8-3-3.1-5-3.8c-1.5-0.5-3.2-0.6-4.8-0.4c-2.8,0.6-5.2,2.3-6.8,4.7c0.4,0.1,0.8,0.3,1.2,0.5c0.5,0.3,0.9,0.7,1.2,1.1
			c0.5,0.9,0.8,1.8,0.8,2.8c0.2,2.1,0.6,4.3,1.2,6.3c0.6-2.3,1.6-4.4,2.9-6.4c0.2-0.2,0.4-0.4,0.6-0.6c0.1-0.1,0.3-0.1,0.4-0.1
			c0.3,0,0.5,0.1,0.7,0.2c0.1,0,0.1,0.1,0.1,0.1c0.2,0.2,0.4,0.4,0.6,0.6c0.3,0.6,0.6,1.2,0.9,1.8c0.5,1.4,0.9,3.1,0.9,3.1l1.2,4.9
			c0.4,1.7,1,3.4,1.7,5c1.9,4.4,4.8,5.6,4.8,5.6c1.4,0.7,3,1.2,4.6,1.2c1.5,0.1,3.1-0.3,4.4-0.9c1.5-0.8,2.8-1.8,3.9-3.1
			c0.6-0.9,1.2-1.8,1.7-2.8c1.2-2.3,2-4.7,2.7-7.2c0.4-1.5,0.8-3.1,1-4.7c0.1-0.8,0.2-1.5,0.3-2.3c0.1-0.7,0.1-1.5-0.1-2.2
			c-0.1-0.1-0.1-0.2-0.1-0.4c-0.4-0.9-1-1.7-1.9-2.2C61.8,48.5,61,48.3,60.3,48.3z"/>
		
			<radialGradient id="SVGID_25_" cx="-374.2582" cy="527.5332" r="0.62" gradientTransform="matrix(-4.76 31.17 20.57 3.14 -12579.46 10066.3398)" gradientUnits="userSpaceOnUse">
			<stop  offset="0" style="stop-color:#1A3D9C"/>
			<stop  offset="0.4" style="stop-color:#1A3D9C;stop-opacity:0.42"/>
			<stop  offset="0.7" style="stop-color:#1A3D9C;stop-opacity:0"/>
		</radialGradient>
		<path class="st23" d="M60.3,48.3c-0.3,0-0.7,0.1-1,0.1c0.8,1.2,1.5,2.4,2,3.7c0.2,0.6,0.4,1.2,0.4,1.8c0,0.6-0.1,1.1-0.3,1.7
			c-0.3,0.5-0.6,1-0.9,1.4c-0.4,0.4-0.9,0.8-1.4,0.9c-0.5,0.2-1.1,0.3-1.7,0.3c-0.8,0-1.5-0.2-2.2-0.6l-0.4,1.7
			c-0.3,1.3-0.8,2.5-1.4,3.7c-0.3,0.7-0.7,1.4-1.1,2.1c-0.3,0.4-0.7,0.8-1.2,1c-0.2,0-0.4,0.1-0.5,0.1c-0.2,0-0.4-0.1-0.6-0.2
			c-0.3-0.3-0.6-0.6-0.8-1c-0.2-0.4-0.4-0.8-0.6-1.3c-0.4-0.9-1-3.2-1-3.2L47,58.1l-0.6-2.4L46,54.1c-0.5-2.2-1.4-4.3-2.7-6.2
			c-1.2-1.8-3-3.1-5-3.8c-1.5-0.5-3.2-0.6-4.8-0.4c-2.8,0.6-5.2,2.3-6.8,4.7c0.4,0.1,0.8,0.3,1.2,0.5c0.5,0.3,0.9,0.7,1.2,1.1
			c0.5,0.9,0.8,1.8,0.8,2.8c0.2,2.1,0.6,4.3,1.2,6.3c0.6-2.3,1.6-4.4,2.9-6.4c0.2-0.2,0.4-0.4,0.6-0.6c0.1-0.1,0.3-0.1,0.4-0.1
			c0.3,0,0.5,0.1,0.7,0.2c0.1,0,0.1,0.1,0.1,0.1c0.2,0.2,0.4,0.4,0.6,0.6c0.3,0.6,0.6,1.2,0.9,1.8c0.5,1.4,0.9,3.1,0.9,3.1l1.2,4.9
			c0.4,1.7,1,3.4,1.7,5c1.9,4.4,4.8,5.6,4.8,5.6c1.4,0.7,3,1.2,4.6,1.2c1.5,0.1,3.1-0.3,4.4-0.9c1.5-0.8,2.8-1.8,3.9-3.1
			c0.6-0.9,1.2-1.8,1.7-2.8c1.2-2.3,2-4.7,2.7-7.2c0.4-1.5,0.8-3.1,1-4.7c0.1-0.8,0.2-1.5,0.3-2.3c0.1-0.7,0.1-1.5-0.1-2.2
			c-0.1-0.1-0.1-0.2-0.1-0.4c-0.4-0.9-1-1.7-1.9-2.2C61.8,48.5,61,48.3,60.3,48.3z"/>
		
			<radialGradient id="SVGID_26_" cx="-385.7328" cy="502.4042" r="0.62" gradientTransform="matrix(-586.04 3834.26 2067.3999 315.99 -1252891.375 1289776.25)" gradientUnits="userSpaceOnUse">
			<stop  offset="0" style="stop-color:#1A3D9C"/>
			<stop  offset="0.4" style="stop-color:#1A3D9C;stop-opacity:0.42"/>
			<stop  offset="0.7" style="stop-color:#1A3D9C;stop-opacity:0"/>
		</radialGradient>
		<path class="st24" d="M60.3,48.3c-0.3,0-0.7,0.1-1,0.1c0.8,1.2,1.5,2.4,2,3.7c0.2,0.6,0.4,1.2,0.4,1.8c0,0.6-0.1,1.1-0.3,1.7
			c-0.3,0.5-0.6,1-0.9,1.4c-0.4,0.4-0.9,0.8-1.4,0.9c-0.5,0.2-1.1,0.3-1.7,0.3c-0.8,0-1.5-0.2-2.2-0.6l-0.4,1.7
			c-0.3,1.3-0.8,2.5-1.4,3.7c-0.3,0.7-0.7,1.4-1.1,2.1c-0.3,0.4-0.7,0.8-1.2,1c-0.2,0-0.4,0.1-0.5,0.1c-0.2,0-0.4-0.1-0.6-0.2
			c-0.3-0.3-0.6-0.6-0.8-1c-0.2-0.4-0.4-0.8-0.6-1.3c-0.4-0.9-1-3.2-1-3.2L47,58.1l-0.6-2.4L46,54.1c-0.5-2.2-1.4-4.3-2.7-6.2
			c-1.2-1.8-3-3.1-5-3.8c-1.5-0.5-3.2-0.6-4.8-0.4c-2.8,0.6-5.2,2.3-6.8,4.7c0.4,0.1,0.8,0.3,1.2,0.5c0.5,0.3,0.9,0.7,1.2,1.1
			c0.5,0.9,0.8,1.8,0.8,2.8c0.2,2.1,0.6,4.3,1.2,6.3c0.6-2.3,1.6-4.4,2.9-6.4c0.2-0.2,0.4-0.4,0.6-0.6c0.1-0.1,0.3-0.1,0.4-0.1
			c0.3,0,0.5,0.1,0.7,0.2c0.1,0,0.1,0.1,0.1,0.1c0.2,0.2,0.4,0.4,0.6,0.6c0.3,0.6,0.6,1.2,0.9,1.8c0.5,1.4,0.9,3.1,0.9,3.1l1.2,4.9
			c0.4,1.7,1,3.4,1.7,5c1.9,4.4,4.8,5.6,4.8,5.6c1.4,0.7,3,1.2,4.6,1.2c1.5,0.1,3.1-0.3,4.4-0.9c1.5-0.8,2.8-1.8,3.9-3.1
			c0.6-0.9,1.2-1.8,1.7-2.8c1.2-2.3,2-4.7,2.7-7.2c0.4-1.5,0.8-3.1,1-4.7c0.1-0.8,0.2-1.5,0.3-2.3c0.1-0.7,0.1-1.5-0.1-2.2
			c-0.1-0.1-0.1-0.2-0.1-0.4c-0.4-0.9-1-1.7-1.9-2.2C61.8,48.5,61,48.3,60.3,48.3z"/>
		
			<radialGradient id="SVGID_27_" cx="-386.5419" cy="502.6998" r="0.62" gradientTransform="matrix(-692.01 4567.2998 1886.86 285.89 -1205623.25 1590805.5)" gradientUnits="userSpaceOnUse">
			<stop  offset="0" style="stop-color:#1A3D9C"/>
			<stop  offset="0.4" style="stop-color:#1A3D9C;stop-opacity:0.42"/>
			<stop  offset="0.7" style="stop-color:#1A3D9C;stop-opacity:0"/>
		</radialGradient>
		<path class="st25" d="M60.3,48.3c-0.3,0-0.7,0.1-1,0.1c0.8,1.2,1.5,2.4,2,3.7c0.2,0.6,0.4,1.2,0.4,1.8c0,0.6-0.1,1.1-0.3,1.7
			c-0.3,0.5-0.6,1-0.9,1.4c-0.4,0.4-0.9,0.8-1.4,0.9c-0.5,0.2-1.1,0.3-1.7,0.3c-0.8,0-1.5-0.2-2.2-0.6l-0.4,1.7
			c-0.3,1.3-0.8,2.5-1.4,3.7c-0.3,0.7-0.7,1.4-1.1,2.1c-0.3,0.4-0.7,0.8-1.2,1c-0.2,0-0.4,0.1-0.5,0.1c-0.2,0-0.4-0.1-0.6-0.2
			c-0.3-0.3-0.6-0.6-0.8-1c-0.2-0.4-0.4-0.8-0.6-1.3c-0.4-0.9-1-3.2-1-3.2L47,58.1l-0.6-2.4L46,54.1c-0.5-2.2-1.4-4.3-2.7-6.2
			c-1.2-1.8-3-3.1-5-3.8c-1.5-0.5-3.2-0.6-4.8-0.4c-2.8,0.6-5.2,2.3-6.8,4.7c0.4,0.1,0.8,0.3,1.2,0.5c0.5,0.3,0.9,0.7,1.2,1.1
			c0.5,0.9,0.8,1.8,0.8,2.8c0.2,2.1,0.6,4.3,1.2,6.3c0.6-2.3,1.6-4.4,2.9-6.4c0.2-0.2,0.4-0.4,0.6-0.6c0.1-0.1,0.3-0.1,0.4-0.1
			c0.3,0,0.5,0.1,0.7,0.2c0.1,0,0.1,0.1,0.1,0.1c0.2,0.2,0.4,0.4,0.6,0.6c0.3,0.6,0.6,1.2,0.9,1.8c0.5,1.4,0.9,3.1,0.9,3.1l1.2,4.9
			c0.4,1.7,1,3.4,1.7,5c1.9,4.4,4.8,5.6,4.8,5.6c1.4,0.7,3,1.2,4.6,1.2c1.5,0.1,3.1-0.3,4.4-0.9c1.5-0.8,2.8-1.8,3.9-3.1
			c0.6-0.9,1.2-1.8,1.7-2.8c1.2-2.3,2-4.7,2.7-7.2c0.4-1.5,0.8-3.1,1-4.7c0.1-0.8,0.2-1.5,0.3-2.3c0.1-0.7,0.1-1.5-0.1-2.2
			c-0.1-0.1-0.1-0.2-0.1-0.4c-0.4-0.9-1-1.7-1.9-2.2C61.8,48.5,61,48.3,60.3,48.3z"/>
		
			<radialGradient id="SVGID_28_" cx="-367.8046" cy="521.2097" r="0.62" gradientTransform="matrix(3.32 27.36 19.09 -2.31 -8677.6299 11324.9902)" gradientUnits="userSpaceOnUse">
			<stop  offset="0" style="stop-color:#1A3D9C"/>
			<stop  offset="0.16" style="stop-color:#1A3D9C;stop-opacity:0.69"/>
			<stop  offset="0.33" style="stop-color:#1A3D9C;stop-opacity:0.4"/>
			<stop  offset="0.49" style="stop-color:#1A3D9C;stop-opacity:0.18"/>
			<stop  offset="0.61" style="stop-color:#1A3D9C;stop-opacity:5.000000e-02"/>
			<stop  offset="0.7" style="stop-color:#1A3D9C;stop-opacity:0"/>
		</radialGradient>
		<path class="st26" d="M60.3,48.3c-0.3,0-0.7,0.1-1,0.1c0.8,1.2,1.5,2.4,2,3.7c0.2,0.6,0.4,1.2,0.4,1.8c0,0.6-0.1,1.1-0.3,1.7
			c-0.3,0.5-0.6,1-0.9,1.4c-0.4,0.4-0.9,0.8-1.4,0.9c-0.5,0.2-1.1,0.3-1.7,0.3c-0.8,0-1.5-0.2-2.2-0.6l-0.4,1.7
			c-0.3,1.3-0.8,2.5-1.4,3.7c-0.3,0.7-0.7,1.4-1.1,2.1c-0.3,0.4-0.7,0.8-1.2,1c-0.2,0-0.4,0.1-0.5,0.1c-0.2,0-0.4-0.1-0.6-0.2
			c-0.3-0.3-0.6-0.6-0.8-1c-0.2-0.4-0.4-0.8-0.6-1.3c-0.4-0.9-1-3.2-1-3.2L47,58.1l-0.6-2.4L46,54.1c-0.5-2.2-1.4-4.3-2.7-6.2
			c-1.2-1.8-3-3.1-5-3.8c-1.5-0.5-3.2-0.6-4.8-0.4c-2.8,0.6-5.2,2.3-6.8,4.7c0.4,0.1,0.8,0.3,1.2,0.5c0.5,0.3,0.9,0.7,1.2,1.1
			c0.5,0.9,0.8,1.8,0.8,2.8c0.2,2.1,0.6,4.3,1.2,6.3c0.6-2.3,1.6-4.4,2.9-6.4c0.2-0.2,0.4-0.4,0.6-0.6c0.1-0.1,0.3-0.1,0.4-0.1
			c0.3,0,0.5,0.1,0.7,0.2c0.1,0,0.1,0.1,0.1,0.1c0.2,0.2,0.4,0.4,0.6,0.6c0.3,0.6,0.6,1.2,0.9,1.8c0.5,1.4,0.9,3.1,0.9,3.1l1.2,4.9
			c0.4,1.7,1,3.4,1.7,5c1.9,4.4,4.8,5.6,4.8,5.6c1.4,0.7,3,1.2,4.6,1.2c1.5,0.1,3.1-0.3,4.4-0.9c1.5-0.8,2.8-1.8,3.9-3.1
			c0.6-0.9,1.2-1.8,1.7-2.8c1.2-2.3,2-4.7,2.7-7.2c0.4-1.5,0.8-3.1,1-4.7c0.1-0.8,0.2-1.5,0.3-2.3c0.1-0.7,0.1-1.5-0.1-2.2
			c-0.1-0.1-0.1-0.2-0.1-0.4c-0.4-0.9-1-1.7-1.9-2.2C61.8,48.5,61,48.3,60.3,48.3z"/>
		
			<radialGradient id="SVGID_29_" cx="-365.3946" cy="516.8629" r="0.62" gradientTransform="matrix(7.02 25.54 17.37 -4.77 -6358.3003 11857.6699)" gradientUnits="userSpaceOnUse">
			<stop  offset="0" style="stop-color:#18388F"/>
			<stop  offset="0.37" style="stop-color:#193B96;stop-opacity:0.45"/>
			<stop  offset="0.7" style="stop-color:#1A3D9C;stop-opacity:0"/>
		</radialGradient>
		<path class="st27" d="M60.3,48.3c-0.3,0-0.7,0.1-1,0.1c0.8,1.2,1.5,2.4,2,3.7c0.2,0.6,0.4,1.2,0.4,1.8c0,0.6-0.1,1.1-0.3,1.7
			c-0.3,0.5-0.6,1-0.9,1.4c-0.4,0.4-0.9,0.8-1.4,0.9c-0.5,0.2-1.1,0.3-1.7,0.3c-0.8,0-1.5-0.2-2.2-0.6l-0.4,1.7
			c-0.3,1.3-0.8,2.5-1.4,3.7c-0.3,0.7-0.7,1.4-1.1,2.1c-0.3,0.4-0.7,0.8-1.2,1c-0.2,0-0.4,0.1-0.5,0.1c-0.2,0-0.4-0.1-0.6-0.2
			c-0.3-0.3-0.6-0.6-0.8-1c-0.2-0.4-0.4-0.8-0.6-1.3c-0.4-0.9-1-3.2-1-3.2L47,58.1l-0.6-2.4L46,54.1c-0.5-2.2-1.4-4.3-2.7-6.2
			c-1.2-1.8-3-3.1-5-3.8c-1.5-0.5-3.2-0.6-4.8-0.4c-2.8,0.6-5.2,2.3-6.8,4.7c0.4,0.1,0.8,0.3,1.2,0.5c0.5,0.3,0.9,0.7,1.2,1.1
			c0.5,0.9,0.8,1.8,0.8,2.8c0.2,2.1,0.6,4.3,1.2,6.3c0.6-2.3,1.6-4.4,2.9-6.4c0.2-0.2,0.4-0.4,0.6-0.6c0.1-0.1,0.3-0.1,0.4-0.1
			c0.3,0,0.5,0.1,0.7,0.2c0.1,0,0.1,0.1,0.1,0.1c0.2,0.2,0.4,0.4,0.6,0.6c0.3,0.6,0.6,1.2,0.9,1.8c0.5,1.4,0.9,3.1,0.9,3.1l1.2,4.9
			c0.4,1.7,1,3.4,1.7,5c1.9,4.4,4.8,5.6,4.8,5.6c1.4,0.7,3,1.2,4.6,1.2c1.5,0.1,3.1-0.3,4.4-0.9c1.5-0.8,2.8-1.8,3.9-3.1
			c0.6-0.9,1.2-1.8,1.7-2.8c1.2-2.3,2-4.7,2.7-7.2c0.4-1.5,0.8-3.1,1-4.7c0.1-0.8,0.2-1.5,0.3-2.3c0.1-0.7,0.1-1.5-0.1-2.2
			c-0.1-0.1-0.1-0.2-0.1-0.4c-0.4-0.9-1-1.7-1.9-2.2C61.8,48.5,61,48.3,60.3,48.3z"/>
		
			<radialGradient id="SVGID_30_" cx="-336.1041" cy="523.8087" r="0.62" gradientTransform="matrix(3.26 11.87 11.28 -3.1 -4759.9897 5677.9097)" gradientUnits="userSpaceOnUse">
			<stop  offset="0" style="stop-color:#18388F"/>
			<stop  offset="9.000000e-02" style="stop-color:#183992;stop-opacity:0.78"/>
			<stop  offset="0.22" style="stop-color:#193B96;stop-opacity:0.5"/>
			<stop  offset="0.35" style="stop-color:#193C98;stop-opacity:0.28"/>
			<stop  offset="0.47" style="stop-color:#1A3C9A;stop-opacity:0.13"/>
			<stop  offset="0.59" style="stop-color:#1A3D9C;stop-opacity:3.000000e-02"/>
			<stop  offset="0.7" style="stop-color:#1A3D9C;stop-opacity:0"/>
		</radialGradient>
		<path class="st28" d="M60.3,48.3c-0.3,0-0.7,0.1-1,0.1c0.8,1.2,1.5,2.4,2,3.7c0.2,0.6,0.4,1.2,0.4,1.8c0,0.6-0.1,1.1-0.3,1.7
			c-0.3,0.5-0.6,1-0.9,1.4c-0.4,0.4-0.9,0.8-1.4,0.9c-0.5,0.2-1.1,0.3-1.7,0.3c-0.8,0-1.5-0.2-2.2-0.6l-0.4,1.7
			c-0.3,1.3-0.8,2.5-1.4,3.7c-0.3,0.7-0.7,1.4-1.1,2.1c-0.3,0.4-0.7,0.8-1.2,1c-0.2,0-0.4,0.1-0.5,0.1c-0.2,0-0.4-0.1-0.6-0.2
			c-0.3-0.3-0.6-0.6-0.8-1c-0.2-0.4-0.4-0.8-0.6-1.3c-0.4-0.9-1-3.2-1-3.2L47,58.1l-0.6-2.4L46,54.1c-0.5-2.2-1.4-4.3-2.7-6.2
			c-1.2-1.8-3-3.1-5-3.8c-1.5-0.5-3.2-0.6-4.8-0.4c-2.8,0.6-5.2,2.3-6.8,4.7c0.4,0.1,0.8,0.3,1.2,0.5c0.5,0.3,0.9,0.7,1.2,1.1
			c0.5,0.9,0.8,1.8,0.8,2.8c0.2,2.1,0.6,4.3,1.2,6.3c0.6-2.3,1.6-4.4,2.9-6.4c0.2-0.2,0.4-0.4,0.6-0.6c0.1-0.1,0.3-0.1,0.4-0.1
			c0.3,0,0.5,0.1,0.7,0.2c0.1,0,0.1,0.1,0.1,0.1c0.2,0.2,0.4,0.4,0.6,0.6c0.3,0.6,0.6,1.2,0.9,1.8c0.5,1.4,0.9,3.1,0.9,3.1l1.2,4.9
			c0.4,1.7,1,3.4,1.7,5c1.9,4.4,4.8,5.6,4.8,5.6c1.4,0.7,3,1.2,4.6,1.2c1.5,0.1,3.1-0.3,4.4-0.9c1.5-0.8,2.8-1.8,3.9-3.1
			c0.6-0.9,1.2-1.8,1.7-2.8c1.2-2.3,2-4.7,2.7-7.2c0.4-1.5,0.8-3.1,1-4.7c0.1-0.8,0.2-1.5,0.3-2.3c0.1-0.7,0.1-1.5-0.1-2.2
			c-0.1-0.1-0.1-0.2-0.1-0.4c-0.4-0.9-1-1.7-1.9-2.2C61.8,48.5,61,48.3,60.3,48.3z"/>
		
			<radialGradient id="SVGID_31_" cx="-336.1741" cy="523.8187" r="0.62" gradientTransform="matrix(3.26 11.87 11.28 -3.1 -4759.6899 5680.0098)" gradientUnits="userSpaceOnUse">
			<stop  offset="0" style="stop-color:#1A3D9C;stop-opacity:0.8"/>
			<stop  offset="1.000000e-02" style="stop-color:#1A3D9C;stop-opacity:0.78"/>
			<stop  offset="0.24" style="stop-color:#1A3D9C;stop-opacity:0.45"/>
			<stop  offset="0.44" style="stop-color:#1A3D9C;stop-opacity:0.2"/>
			<stop  offset="0.6" style="stop-color:#1A3D9C;stop-opacity:5.000000e-02"/>
			<stop  offset="0.7" style="stop-color:#1A3D9C;stop-opacity:0"/>
		</radialGradient>
		<path class="st29" d="M60.3,48.3c-0.3,0-0.7,0.1-1,0.1c0.8,1.2,1.5,2.4,2,3.7c0.2,0.6,0.4,1.2,0.4,1.8c0,0.6-0.1,1.1-0.3,1.7
			c-0.3,0.5-0.6,1-0.9,1.4c-0.4,0.4-0.9,0.8-1.4,0.9c-0.5,0.2-1.1,0.3-1.7,0.3c-0.8,0-1.5-0.2-2.2-0.6l-0.4,1.7
			c-0.3,1.3-0.8,2.5-1.4,3.7c-0.3,0.7-0.7,1.4-1.1,2.1c-0.3,0.4-0.7,0.8-1.2,1c-0.2,0-0.4,0.1-0.5,0.1c-0.2,0-0.4-0.1-0.6-0.2
			c-0.3-0.3-0.6-0.6-0.8-1c-0.2-0.4-0.4-0.8-0.6-1.3c-0.4-0.9-1-3.2-1-3.2L47,58.1l-0.6-2.4L46,54.1c-0.5-2.2-1.4-4.3-2.7-6.2
			c-1.2-1.8-3-3.1-5-3.8c-1.5-0.5-3.2-0.6-4.8-0.4c-2.8,0.6-5.2,2.3-6.8,4.7c0.4,0.1,0.8,0.3,1.2,0.5c0.5,0.3,0.9,0.7,1.2,1.1
			c0.5,0.9,0.8,1.8,0.8,2.8c0.2,2.1,0.6,4.3,1.2,6.3c0.6-2.3,1.6-4.4,2.9-6.4c0.2-0.2,0.4-0.4,0.6-0.6c0.1-0.1,0.3-0.1,0.4-0.1
			c0.3,0,0.5,0.1,0.7,0.2c0.1,0,0.1,0.1,0.1,0.1c0.2,0.2,0.4,0.4,0.6,0.6c0.3,0.6,0.6,1.2,0.9,1.8c0.5,1.4,0.9,3.1,0.9,3.1l1.2,4.9
			c0.4,1.7,1,3.4,1.7,5c1.9,4.4,4.8,5.6,4.8,5.6c1.4,0.7,3,1.2,4.6,1.2c1.5,0.1,3.1-0.3,4.4-0.9c1.5-0.8,2.8-1.8,3.9-3.1
			c0.6-0.9,1.2-1.8,1.7-2.8c1.2-2.3,2-4.7,2.7-7.2c0.4-1.5,0.8-3.1,1-4.7c0.1-0.8,0.2-1.5,0.3-2.3c0.1-0.7,0.1-1.5-0.1-2.2
			c-0.1-0.1-0.1-0.2-0.1-0.4c-0.4-0.9-1-1.7-1.9-2.2C61.8,48.5,61,48.3,60.3,48.3z"/>
		
			<radialGradient id="SVGID_32_" cx="-366.9581" cy="511.8017" r="0.62" gradientTransform="matrix(11.47 27.06 17.96 -7.61 -4948.0698 13885.7295)" gradientUnits="userSpaceOnUse">
			<stop  offset="0" style="stop-color:#1A3D9C"/>
			<stop  offset="0.4" style="stop-color:#1A3D9C;stop-opacity:0.56"/>
			<stop  offset="0.48" style="stop-color:#1A3D9C;stop-opacity:0.43"/>
			<stop  offset="0.69" style="stop-color:#1A3D9C;stop-opacity:0.12"/>
			<stop  offset="0.79" style="stop-color:#1A3D9C;stop-opacity:0"/>
		</radialGradient>
		<path class="st30" d="M60.3,48.3c-0.3,0-0.7,0.1-1,0.1c0.8,1.2,1.5,2.4,2,3.7c0.2,0.6,0.4,1.2,0.4,1.8c0,0.6-0.1,1.1-0.3,1.7
			c-0.3,0.5-0.6,1-0.9,1.4c-0.4,0.4-0.9,0.8-1.4,0.9c-0.5,0.2-1.1,0.3-1.7,0.3c-0.8,0-1.5-0.2-2.2-0.6l-0.4,1.7
			c-0.3,1.3-0.8,2.5-1.4,3.7c-0.3,0.7-0.7,1.4-1.1,2.1c-0.3,0.4-0.7,0.8-1.2,1c-0.2,0-0.4,0.1-0.5,0.1c-0.2,0-0.4-0.1-0.6-0.2
			c-0.3-0.3-0.6-0.6-0.8-1c-0.2-0.4-0.4-0.8-0.6-1.3c-0.4-0.9-1-3.2-1-3.2L47,58.1l-0.6-2.4L46,54.1c-0.5-2.2-1.4-4.3-2.7-6.2
			c-1.2-1.8-3-3.1-5-3.8c-1.5-0.5-3.2-0.6-4.8-0.4c-2.8,0.6-5.2,2.3-6.8,4.7c0.4,0.1,0.8,0.3,1.2,0.5c0.5,0.3,0.9,0.7,1.2,1.1
			c0.5,0.9,0.8,1.8,0.8,2.8c0.2,2.1,0.6,4.3,1.2,6.3c0.6-2.3,1.6-4.4,2.9-6.4c0.2-0.2,0.4-0.4,0.6-0.6c0.1-0.1,0.3-0.1,0.4-0.1
			c0.3,0,0.5,0.1,0.7,0.2c0.1,0,0.1,0.1,0.1,0.1c0.2,0.2,0.4,0.4,0.6,0.6c0.3,0.6,0.6,1.2,0.9,1.8c0.5,1.4,0.9,3.1,0.9,3.1l1.2,4.9
			c0.4,1.7,1,3.4,1.7,5c1.9,4.4,4.8,5.6,4.8,5.6c1.4,0.7,3,1.2,4.6,1.2c1.5,0.1,3.1-0.3,4.4-0.9c1.5-0.8,2.8-1.8,3.9-3.1
			c0.6-0.9,1.2-1.8,1.7-2.8c1.2-2.3,2-4.7,2.7-7.2c0.4-1.5,0.8-3.1,1-4.7c0.1-0.8,0.2-1.5,0.3-2.3c0.1-0.7,0.1-1.5-0.1-2.2
			c-0.1-0.1-0.1-0.2-0.1-0.4c-0.4-0.9-1-1.7-1.9-2.2C61.8,48.5,61,48.3,60.3,48.3z"/>
		
			<radialGradient id="SVGID_33_" cx="-359.9283" cy="522.092" r="0.62" gradientTransform="matrix(5.24 21.16 13.97 -3.46 -5374.8701 9479)" gradientUnits="userSpaceOnUse">
			<stop  offset="0" style="stop-color:#1A3D9C"/>
			<stop  offset="6.000000e-02" style="stop-color:#1A3D9C;stop-opacity:0.88"/>
			<stop  offset="0.21" style="stop-color:#1A3D9C;stop-opacity:0.61"/>
			<stop  offset="0.36" style="stop-color:#1A3D9C;stop-opacity:0.39"/>
			<stop  offset="0.51" style="stop-color:#1A3D9C;stop-opacity:0.22"/>
			<stop  offset="0.67" style="stop-color:#1A3D9C;stop-opacity:0.1"/>
			<stop  offset="0.83" style="stop-color:#1A3D9C;stop-opacity:2.000000e-02"/>
			<stop  offset="1" style="stop-color:#1A3D9C;stop-opacity:0"/>
		</radialGradient>
		<path class="st31" d="M60.3,48.3c-0.3,0-0.7,0.1-1,0.1c0.8,1.2,1.5,2.4,2,3.7c0.2,0.6,0.4,1.2,0.4,1.8c0,0.6-0.1,1.1-0.3,1.7
			c-0.3,0.5-0.6,1-0.9,1.4c-0.4,0.4-0.9,0.8-1.4,0.9c-0.5,0.2-1.1,0.3-1.7,0.3c-0.8,0-1.5-0.2-2.2-0.6l-0.4,1.7
			c-0.3,1.3-0.8,2.5-1.4,3.7c-0.3,0.7-0.7,1.4-1.1,2.1c-0.3,0.4-0.7,0.8-1.2,1c-0.2,0-0.4,0.1-0.5,0.1c-0.2,0-0.4-0.1-0.6-0.2
			c-0.3-0.3-0.6-0.6-0.8-1c-0.2-0.4-0.4-0.8-0.6-1.3c-0.4-0.9-1-3.2-1-3.2L47,58.1l-0.6-2.4L46,54.1c-0.5-2.2-1.4-4.3-2.7-6.2
			c-1.2-1.8-3-3.1-5-3.8c-1.5-0.5-3.2-0.6-4.8-0.4c-2.8,0.6-5.2,2.3-6.8,4.7c0.4,0.1,0.8,0.3,1.2,0.5c0.5,0.3,0.9,0.7,1.2,1.1
			c0.5,0.9,0.8,1.8,0.8,2.8c0.2,2.1,0.6,4.3,1.2,6.3c0.6-2.3,1.6-4.4,2.9-6.4c0.2-0.2,0.4-0.4,0.6-0.6c0.1-0.1,0.3-0.1,0.4-0.1
			c0.3,0,0.5,0.1,0.7,0.2c0.1,0,0.1,0.1,0.1,0.1c0.2,0.2,0.4,0.4,0.6,0.6c0.3,0.6,0.6,1.2,0.9,1.8c0.5,1.4,0.9,3.1,0.9,3.1l1.2,4.9
			c0.4,1.7,1,3.4,1.7,5c1.9,4.4,4.8,5.6,4.8,5.6c1.4,0.7,3,1.2,4.6,1.2c1.5,0.1,3.1-0.3,4.4-0.9c1.5-0.8,2.8-1.8,3.9-3.1
			c0.6-0.9,1.2-1.8,1.7-2.8c1.2-2.3,2-4.7,2.7-7.2c0.4-1.5,0.8-3.1,1-4.7c0.1-0.8,0.2-1.5,0.3-2.3c0.1-0.7,0.1-1.5-0.1-2.2
			c-0.1-0.1-0.1-0.2-0.1-0.4c-0.4-0.9-1-1.7-1.9-2.2C61.8,48.5,61,48.3,60.3,48.3z"/>
		
			<radialGradient id="SVGID_34_" cx="-359.9283" cy="522.092" r="0.62" gradientTransform="matrix(5.24 21.16 13.97 -3.46 -5374.8701 9479)" gradientUnits="userSpaceOnUse">
			<stop  offset="0" style="stop-color:#1B3E9E"/>
			<stop  offset="6.000000e-02" style="stop-color:#1B3E9E;stop-opacity:0.87"/>
			<stop  offset="0.21" style="stop-color:#1B3E9D;stop-opacity:0.61"/>
			<stop  offset="0.36" style="stop-color:#1A3D9D;stop-opacity:0.39"/>
			<stop  offset="0.52" style="stop-color:#1A3D9C;stop-opacity:0.22"/>
			<stop  offset="0.67" style="stop-color:#1A3D9C;stop-opacity:0.1"/>
			<stop  offset="0.83" style="stop-color:#1A3D9C;stop-opacity:2.000000e-02"/>
			<stop  offset="1" style="stop-color:#1A3D9C;stop-opacity:0"/>
		</radialGradient>
		<path class="st32" d="M60.3,48.3c-0.3,0-0.7,0.1-1,0.1c0.8,1.2,1.5,2.4,2,3.7c0.2,0.6,0.4,1.2,0.4,1.8c0,0.6-0.1,1.1-0.3,1.7
			c-0.3,0.5-0.6,1-0.9,1.4c-0.4,0.4-0.9,0.8-1.4,0.9c-0.5,0.2-1.1,0.3-1.7,0.3c-0.8,0-1.5-0.2-2.2-0.6l-0.4,1.7
			c-0.3,1.3-0.8,2.5-1.4,3.7c-0.3,0.7-0.7,1.4-1.1,2.1c-0.3,0.4-0.7,0.8-1.2,1c-0.2,0-0.4,0.1-0.5,0.1c-0.2,0-0.4-0.1-0.6-0.2
			c-0.3-0.3-0.6-0.6-0.8-1c-0.2-0.4-0.4-0.8-0.6-1.3c-0.4-0.9-1-3.2-1-3.2L47,58.1l-0.6-2.4L46,54.1c-0.5-2.2-1.4-4.3-2.7-6.2
			c-1.2-1.8-3-3.1-5-3.8c-1.5-0.5-3.2-0.6-4.8-0.4c-2.8,0.6-5.2,2.3-6.8,4.7c0.4,0.1,0.8,0.3,1.2,0.5c0.5,0.3,0.9,0.7,1.2,1.1
			c0.5,0.9,0.8,1.8,0.8,2.8c0.2,2.1,0.6,4.3,1.2,6.3c0.6-2.3,1.6-4.4,2.9-6.4c0.2-0.2,0.4-0.4,0.6-0.6c0.1-0.1,0.3-0.1,0.4-0.1
			c0.3,0,0.5,0.1,0.7,0.2c0.1,0,0.1,0.1,0.1,0.1c0.2,0.2,0.4,0.4,0.6,0.6c0.3,0.6,0.6,1.2,0.9,1.8c0.5,1.4,0.9,3.1,0.9,3.1l1.2,4.9
			c0.4,1.7,1,3.4,1.7,5c1.9,4.4,4.8,5.6,4.8,5.6c1.4,0.7,3,1.2,4.6,1.2c1.5,0.1,3.1-0.3,4.4-0.9c1.5-0.8,2.8-1.8,3.9-3.1
			c0.6-0.9,1.2-1.8,1.7-2.8c1.2-2.3,2-4.7,2.7-7.2c0.4-1.5,0.8-3.1,1-4.7c0.1-0.8,0.2-1.5,0.3-2.3c0.1-0.7,0.1-1.5-0.1-2.2
			c-0.1-0.1-0.1-0.2-0.1-0.4c-0.4-0.9-1-1.7-1.9-2.2C61.8,48.5,61,48.3,60.3,48.3z"/>
		
			<radialGradient id="SVGID_35_" cx="-350.3575" cy="527.5178" r="0.62" gradientTransform="matrix(4.01 16.19 10.69 -2.64 -4200.6396 7120.9902)" gradientUnits="userSpaceOnUse">
			<stop  offset="0" style="stop-color:#183991"/>
			<stop  offset="3.000000e-02" style="stop-color:#183992;stop-opacity:0.95"/>
			<stop  offset="0.18" style="stop-color:#193A95;stop-opacity:0.66"/>
			<stop  offset="0.34" style="stop-color:#193B97;stop-opacity:0.42"/>
			<stop  offset="0.5" style="stop-color:#1A3C99;stop-opacity:0.24"/>
			<stop  offset="0.66" style="stop-color:#1A3D9B;stop-opacity:0.1"/>
			<stop  offset="0.82" style="stop-color:#1A3D9C;stop-opacity:3.000000e-02"/>
			<stop  offset="1" style="stop-color:#1A3D9C;stop-opacity:0"/>
		</radialGradient>
		<path class="st33" d="M60.3,48.3c-0.3,0-0.7,0.1-1,0.1c0.8,1.2,1.5,2.4,2,3.7c0.2,0.6,0.4,1.2,0.4,1.8c0,0.6-0.1,1.1-0.3,1.7
			c-0.3,0.5-0.6,1-0.9,1.4c-0.4,0.4-0.9,0.8-1.4,0.9c-0.5,0.2-1.1,0.3-1.7,0.3c-0.8,0-1.5-0.2-2.2-0.6l-0.4,1.7
			c-0.3,1.3-0.8,2.5-1.4,3.7c-0.3,0.7-0.7,1.4-1.1,2.1c-0.3,0.4-0.7,0.8-1.2,1c-0.2,0-0.4,0.1-0.5,0.1c-0.2,0-0.4-0.1-0.6-0.2
			c-0.3-0.3-0.6-0.6-0.8-1c-0.2-0.4-0.4-0.8-0.6-1.3c-0.4-0.9-1-3.2-1-3.2L47,58.1l-0.6-2.4L46,54.1c-0.5-2.2-1.4-4.3-2.7-6.2
			c-1.2-1.8-3-3.1-5-3.8c-1.5-0.5-3.2-0.6-4.8-0.4c-2.8,0.6-5.2,2.3-6.8,4.7c0.4,0.1,0.8,0.3,1.2,0.5c0.5,0.3,0.9,0.7,1.2,1.1
			c0.5,0.9,0.8,1.8,0.8,2.8c0.2,2.1,0.6,4.3,1.2,6.3c0.6-2.3,1.6-4.4,2.9-6.4c0.2-0.2,0.4-0.4,0.6-0.6c0.1-0.1,0.3-0.1,0.4-0.1
			c0.3,0,0.5,0.1,0.7,0.2c0.1,0,0.1,0.1,0.1,0.1c0.2,0.2,0.4,0.4,0.6,0.6c0.3,0.6,0.6,1.2,0.9,1.8c0.5,1.4,0.9,3.1,0.9,3.1l1.2,4.9
			c0.4,1.7,1,3.4,1.7,5c1.9,4.4,4.8,5.6,4.8,5.6c1.4,0.7,3,1.2,4.6,1.2c1.5,0.1,3.1-0.3,4.4-0.9c1.5-0.8,2.8-1.8,3.9-3.1
			c0.6-0.9,1.2-1.8,1.7-2.8c1.2-2.3,2-4.7,2.7-7.2c0.4-1.5,0.8-3.1,1-4.7c0.1-0.8,0.2-1.5,0.3-2.3c0.1-0.7,0.1-1.5-0.1-2.2
			c-0.1-0.1-0.1-0.2-0.1-0.4c-0.4-0.9-1-1.7-1.9-2.2C61.8,48.5,61,48.3,60.3,48.3z"/>
		
			<radialGradient id="SVGID_36_" cx="-344.2682" cy="537.0162" r="0.62" gradientTransform="matrix(0.66 13.16 11.59 -0.58 -5960.9102 4898.7397)" gradientUnits="userSpaceOnUse">
			<stop  offset="4.000000e-02" style="stop-color:#2453D6;stop-opacity:0.6"/>
			<stop  offset="0.2" style="stop-color:#2453D6;stop-opacity:0.49"/>
			<stop  offset="0.52" style="stop-color:#2453D6;stop-opacity:0.2"/>
			<stop  offset="0.73" style="stop-color:#2453D6;stop-opacity:0"/>
		</radialGradient>
		<path class="st34" d="M60.3,48.3c-0.3,0-0.7,0.1-1,0.1c0.8,1.2,1.5,2.4,2,3.7c0.2,0.6,0.4,1.2,0.4,1.8c0,0.6-0.1,1.1-0.3,1.7
			c-0.3,0.5-0.6,1-0.9,1.4c-0.4,0.4-0.9,0.8-1.4,0.9c-0.5,0.2-1.1,0.3-1.7,0.3c-0.8,0-1.5-0.2-2.2-0.6l-0.4,1.7
			c-0.3,1.3-0.8,2.5-1.4,3.7c-0.3,0.7-0.7,1.4-1.1,2.1c-0.3,0.4-0.7,0.8-1.2,1c-0.2,0-0.4,0.1-0.5,0.1c-0.2,0-0.4-0.1-0.6-0.2
			c-0.3-0.3-0.6-0.6-0.8-1c-0.2-0.4-0.4-0.8-0.6-1.3c-0.4-0.9-1-3.2-1-3.2L47,58.1l-0.6-2.4L46,54.1c-0.5-2.2-1.4-4.3-2.7-6.2
			c-1.2-1.8-3-3.1-5-3.8c-1.5-0.5-3.2-0.6-4.8-0.4c-2.8,0.6-5.2,2.3-6.8,4.7c0.4,0.1,0.8,0.3,1.2,0.5c0.5,0.3,0.9,0.7,1.2,1.1
			c0.5,0.9,0.8,1.8,0.8,2.8c0.2,2.1,0.6,4.3,1.2,6.3c0.6-2.3,1.6-4.4,2.9-6.4c0.2-0.2,0.4-0.4,0.6-0.6c0.1-0.1,0.3-0.1,0.4-0.1
			c0.3,0,0.5,0.1,0.7,0.2c0.1,0,0.1,0.1,0.1,0.1c0.2,0.2,0.4,0.4,0.6,0.6c0.3,0.6,0.6,1.2,0.9,1.8c0.5,1.4,0.9,3.1,0.9,3.1l1.2,4.9
			c0.4,1.7,1,3.4,1.7,5c1.9,4.4,4.8,5.6,4.8,5.6c1.4,0.7,3,1.2,4.6,1.2c1.5,0.1,3.1-0.3,4.4-0.9c1.5-0.8,2.8-1.8,3.9-3.1
			c0.6-0.9,1.2-1.8,1.7-2.8c1.2-2.3,2-4.7,2.7-7.2c0.4-1.5,0.8-3.1,1-4.7c0.1-0.8,0.2-1.5,0.3-2.3c0.1-0.7,0.1-1.5-0.1-2.2
			c-0.1-0.1-0.1-0.2-0.1-0.4c-0.4-0.9-1-1.7-1.9-2.2C61.8,48.5,61,48.3,60.3,48.3z"/>
		
			<linearGradient id="SVGID_37_" gradientUnits="userSpaceOnUse" x1="58.8411" y1="-94.0386" x2="49.6611" y2="-116.7086" gradientTransform="matrix(1 0 0 -1 -7 -56.22)">
			<stop  offset="0" style="stop-color:#3774FF"/>
			<stop  offset="5.000000e-02" style="stop-color:#3774FF;stop-opacity:0.91"/>
			<stop  offset="0.16" style="stop-color:#3774FF;stop-opacity:0.66"/>
			<stop  offset="0.32" style="stop-color:#3774FF;stop-opacity:0.28"/>
			<stop  offset="0.43" style="stop-color:#3774FF;stop-opacity:0"/>
		</linearGradient>
		<path class="st35" d="M60.3,48.3c-0.3,0-0.7,0.1-1,0.1c0.8,1.2,1.5,2.4,2,3.7c0.2,0.6,0.4,1.2,0.4,1.8c0,0.6-0.1,1.1-0.3,1.7
			c-0.3,0.5-0.6,1-0.9,1.4c-0.4,0.4-0.9,0.8-1.4,0.9c-0.5,0.2-1.1,0.3-1.7,0.3c-0.8,0-1.5-0.2-2.2-0.6l-0.4,1.7
			c-0.3,1.3-0.8,2.5-1.4,3.7c-0.3,0.7-0.7,1.4-1.1,2.1c-0.3,0.4-0.7,0.8-1.2,1c-0.2,0-0.4,0.1-0.5,0.1c-0.2,0-0.4-0.1-0.6-0.2
			c-0.3-0.3-0.6-0.6-0.8-1c-0.2-0.4-0.4-0.8-0.6-1.3c-0.4-0.9-1-3.2-1-3.2L47,58.1l-0.6-2.4L46,54.1c-0.5-2.2-1.4-4.3-2.7-6.2
			c-1.2-1.8-3-3.1-5-3.8c-1.5-0.5-3.2-0.6-4.8-0.4c-2.8,0.6-5.2,2.3-6.8,4.7c0.4,0.1,0.8,0.3,1.2,0.5c0.5,0.3,0.9,0.7,1.2,1.1
			c0.5,0.9,0.8,1.8,0.8,2.8c0.2,2.1,0.6,4.3,1.2,6.3c0.6-2.3,1.6-4.4,2.9-6.4c0.2-0.2,0.4-0.4,0.6-0.6c0.1-0.1,0.3-0.1,0.4-0.1
			c0.3,0,0.5,0.1,0.7,0.2c0.1,0,0.1,0.1,0.1,0.1c0.2,0.2,0.4,0.4,0.6,0.6c0.3,0.6,0.6,1.2,0.9,1.8c0.5,1.4,0.9,3.1,0.9,3.1l1.2,4.9
			c0.4,1.7,1,3.4,1.7,5c1.9,4.4,4.8,5.6,4.8,5.6c1.4,0.7,3,1.2,4.6,1.2c1.5,0.1,3.1-0.3,4.4-0.9c1.5-0.8,2.8-1.8,3.9-3.1
			c0.6-0.9,1.2-1.8,1.7-2.8c1.2-2.3,2-4.7,2.7-7.2c0.4-1.5,0.8-3.1,1-4.7c0.1-0.8,0.2-1.5,0.3-2.3c0.1-0.7,0.1-1.5-0.1-2.2
			c-0.1-0.1-0.1-0.2-0.1-0.4c-0.4-0.9-1-1.7-1.9-2.2C61.8,48.5,61,48.3,60.3,48.3z"/>
	</g>
</g>
<rect x="15" y="39" class="st36" width="186" height="57"/>
</svg>
