<?xml version="1.0" standalone="no"?>
<!DOCTYPE svg PUBLIC "-//W3C//DTD SVG 20010904//EN"
 "http://www.w3.org/TR/2001/REC-SVG-20010904/DTD/svg10.dtd">
<svg version="1.0" xmlns="http://www.w3.org/2000/svg"
 width="256.000000pt" height="256.000000pt" viewBox="0 0 256.000000 256.000000"
 preserveAspectRatio="xMidYMid meet">
<metadata>
Created by potrace 1.14, written by Peter Selinger 2001-2017
</metadata>
<g transform="translate(0.000000,256.000000) scale(0.100000,-0.100000)"
fill="#000000" stroke="none">
<path d="M640 2346 l0 -104 -89 -4 c-76 -3 -95 -8 -130 -31 -22 -15 -53 -46
-68 -69 l-28 -42 0 -816 0 -816 28 -42 c15 -23 46 -54 69 -69 l42 -28 513 -3
c282 -1 513 -1 513 0 0 2 -13 48 -29 103 l-28 100 -449 5 -449 5 0 585 0 585
745 0 745 0 3 -286 2 -285 105 -31 105 -31 0 491 c0 358 -3 501 -12 531 -16
53 -81 118 -134 134 -23 6 -71 12 -108 12 l-66 0 0 105 0 105 -105 0 -105 0 0
-105 0 -105 -430 0 -430 0 0 105 0 105 -105 0 -105 0 0 -104z"/>
<path d="M750 1225 l0 -265 265 0 265 0 0 265 0 265 -265 0 -265 0 0 -265z"/>
<path d="M1500 1053 c0 -24 205 -722 210 -715 4 4 28 59 55 122 27 63 50 117
51 119 2 2 81 -71 176 -162 l173 -166 75 74 75 75 -168 168 c-92 92 -167 170
-167 174 0 3 53 27 118 53 64 26 121 50 125 54 7 7 -684 211 -713 211 -5 0
-10 -3 -10 -7z"/>
</g>
</svg>
